<?xml version="1.0" standalone="no"?>
<!DOCTYPE svg PUBLIC "-//W3C//DTD SVG 1.1//EN" "http://www.w3.org/Graphics/SVG/1.1/DTD/svg11.dtd" >
<svg xmlns="http://www.w3.org/2000/svg">
<metadata>
Created by FontPrep 20130207 at Thu Jul 23 09:00:51 2015
 By Wendell P. Barreto
Copyright (c) 2009 by TypeTogether. All rights reserved.
</metadata>
<defs>
<font id="1161e3d38fc365c8c2da1007436f3c26" horiz-adv-x='1024' >
  <font-face 
    font-family="AdelleBasic-BoldItalic"
    font-weight="700"
    font-style="italic"
    font-stretch="normal"
    units-per-em="2048"
    panose-1="2 0 8 3 0 0 0 9 0 4"
    ascent="1546"
    descent="-502"
    x-height="1067"
    cap-height="1483"
    bbox="-322 -600 2269.01 2023"
    underline-thickness="102"
    underline-position="-102"
    unicode-range="U+0020-FB04"
  />
<missing-glyph 
 />
    <glyph glyph-name="ff" unicode="ff" horiz-adv-x="1521" 
d="M614 1067h334l25 172q-106 74 -217 74q-121 0 -142 -137l-14 -89q-2 -20 14 -20zM901 862h-332l-182 -1296h-305l182 1276q4 20 -14 20h-133l26 205h152l14 98q55 373 406 373q188 0 342 -100q104 133 323 133q94 0 194 -32t159 -77l-113 -190q-119 74 -207 74
q-125 0 -143 -138l-17 -121q-2 -20 15 -20h315l-29 -205h-333l-181 -1296h-305l180 1276q4 20 -14 20z" />
    <glyph glyph-name="fi" unicode="fi" horiz-adv-x="1314" 
d="M250 862h-133l26 205h152l18 131q53 373 447 373q133 0 256 -39t192 -90l-112 -191q-158 94 -297 95q-162 0 -183 -150l-16 -109q-2 -20 14 -20h637l-121 -860q-4 -25 0 -32t27 -9l98 -14l-18 -152h-442l-7 10l50 277l75 534q6 39 -20 41h-324l-182 -1296h-305l182 1276
q4 20 -14 20z" />
    <glyph glyph-name="fl" unicode="fl" horiz-adv-x="1316" 
d="M614 1067h244l-29 -205h-260l-182 -1296h-305l182 1276q4 20 -14 20h-133l26 205h152l18 131q53 373 432 373q182 0 340 -90l156 65h78l-189 -1339q-4 -25 0 -32t27 -9l98 -14l-18 -152h-442l-7 10l54 301l135 973q-115 61 -201 62q-137 0 -160 -138l-16 -121
q-2 -20 14 -20z" />
    <glyph glyph-name="ffi" unicode="ffi" horiz-adv-x="1966" 
d="M614 1067h332l19 131q4 29 8 43q-115 72 -217 72q-121 0 -142 -137l-14 -89q-2 -20 14 -20zM901 862h-332l-182 -1296h-305l182 1276q4 20 -14 20h-133l26 205h152l14 98q55 373 406 373q197 0 344 -102q113 135 352 135q133 0 256 -39t193 -90l-113 -191
q-158 94 -297 95q-162 0 -182 -150l-17 -109q-2 -20 15 -20h637l-121 -860q-4 -25 0 -32t26 -9l99 -14l-19 -152h-442l-6 10l49 277l76 534q6 41 -27 41h-317l-183 -1296h-305l182 1276q4 20 -14 20z" />
    <glyph glyph-name="ffl" unicode="ffl" horiz-adv-x="1972" 
d="M614 1067h336l25 172q-111 74 -219 74q-121 0 -142 -137l-14 -89q-2 -20 14 -20zM1270 1067h243l-28 -205h-260l-183 -1296h-305l183 1276q4 18 -11 20h-340l-182 -1296h-305l182 1276q4 20 -14 20h-133l26 205h152l14 98q55 373 406 373q197 0 344 -102q109 135 342 135
q182 0 340 -90l155 65h78l-188 -1339q-4 -25 0 -32t26 -9l99 -14l-19 -152h-442l-6 10l53 301l135 973q-115 61 -200 62q-141 0 -160 -138l-17 -121q-2 -20 15 -20z" />
    <glyph glyph-name=".notdef" 
 />
    <glyph glyph-name=".null" horiz-adv-x="0" 
 />
    <glyph glyph-name="nonmarkingreturn" horiz-adv-x="681" 
 />
    <glyph glyph-name="space" unicode=" " horiz-adv-x="413" 
 />
    <glyph glyph-name="exclam" unicode="!" horiz-adv-x="579" 
d="M453 162q0 -186 -199 -187q-158 0 -158 131q0 188 203 189q154 0 154 -133zM440 393h-260l68 727l51 363h330l-51 -363z" />
    <glyph glyph-name="quotedbl" unicode="&#x22;" horiz-adv-x="849" 
d="M430 915h-276l75 531h277zM840 915h-277l76 531h276z" />
    <glyph glyph-name="numbersign" unicode="#" horiz-adv-x="1243" 
d="M721 455l67 231h-176l-69 -231h178zM1069 248h-199l-69 -248h-213l71 248h-178l-69 -248h-213l69 248h-202l73 207h193l67 231h-204l71 209h193l63 217h213l-63 -217h176l63 217h213l-63 -217h207l-70 -209h-197l-67 -231h207z" />
    <glyph glyph-name="dollar" unicode="$" horiz-adv-x="1060" 
d="M664 1102q-94 0 -152 -37t-57 -106q0 -69 53 -105q52 -36 114 -60q62 -22 100 -36q93 -33 178 -99q103 -80 102 -242q-1 -161 -102 -265t-275 -138l-23 -178h-254l23 168q-225 14 -332 74l47 336l215 -13l10 -141q2 -37 46 -49t135 -12q219 0 219 157q0 85 -100 129
q-64 29 -161 64t-184 97q-108 81 -107 250t107 269t285 127l24 156h256l-22 -152q137 -10 278 -57l-47 -348l-217 18l-6 142q1 31 -29 41t-124 10z" />
    <glyph glyph-name="percent" unicode="%" horiz-adv-x="1859" 
d="M1413 143q150 0 150 273q0 133 -93 133q-154 0 -153 -262q0 -144 96 -144zM1380 -25q-158 0 -230 81t-71 214q1 203 105 326t313 123q301 0 301 -291q0 -205 -108 -329t-310 -124zM485 694q152 0 152 273q0 133 -94 133q-154 0 -154 -262q0 -144 96 -144zM637 -35h-285
l955 1307h282zM455 526q-158 0 -230 81t-71 214q0 203 104 326t313 123q299 0 299 -291q0 -205 -108 -329t-307 -124z" />
    <glyph glyph-name="ampersand" unicode="&#x26;" horiz-adv-x="1429" 
d="M668 -25q-526 0 -527 357q0 154 89 251t223 130v4q-76 27 -134 96q-57 70 -57 172q0 197 142 305t380 107q138 0 266 -32t199 -79l-51 -317l-221 18l-8 131q-4 31 -25 37q-63 18 -149 19q-229 0 -230 -189q0 -80 51 -125t146 -45h82l-29 -217q-267 0 -337 -108
q-30 -46 -29 -111q0 -178 239 -178q175 0 208 33q9 9 13 38l76 525l37 24h379l-23 -164l-86 -10q-31 -2 -32 -29l-70 -532q-219 -111 -522 -111z" />
    <glyph glyph-name="quotesingle" unicode="'" horiz-adv-x="440" 
d="M430 915h-276l75 531h277z" />
    <glyph glyph-name="parenleft" unicode="(" horiz-adv-x="741" 
d="M131 422q0 553 500 1102l209 -138q-205 -254 -294 -483t-89 -523t145 -601l-256 -133q-94 152 -154 358t-61 418z" />
    <glyph glyph-name="parenright" unicode=")" horiz-adv-x="741" 
d="M356 784q0 291 -143 607l254 133q95 -150 155 -357t60 -422q0 -548 -498 -1099l-211 137q205 254 294 482t89 519z" />
    <glyph glyph-name="asterisk" unicode="*" horiz-adv-x="976" 
d="M895 911l-190 -127l-72 115l-31 203l-88 -203l-102 -117l-160 131l104 115l195 113l-213 -8l-131 45l98 204l131 -45l144 -133l-45 199l20 143h215l-20 -143l-101 -199l182 133l144 45l39 -204l-144 -45l-211 8l162 -115zM659 1141l-10 63h-69l-29 -63l51 -39z" />
    <glyph glyph-name="plus" unicode="+" horiz-adv-x="1167" 
d="M676 248h-246l43 295h-272l32 237h273l41 287h246l-41 -287h274l-33 -237h-274z" />
    <glyph glyph-name="comma" unicode="," horiz-adv-x="528" 
d="M416 150q0 -53 -64 -160l-145 -234l-133 41l88 219q8 18 -8 25l-80 29l78 221q132 -2 198 -29t66 -112z" />
    <glyph glyph-name="hyphen" unicode="-" horiz-adv-x="636" 
d="M627 465h-555l37 260h555z" />
    <glyph glyph-name="period" unicode="." horiz-adv-x="565" 
d="M442 156q0 -180 -198 -181q-156 0 -156 138q0 182 201 182q153 0 153 -139z" />
    <glyph glyph-name="slash" unicode="/" horiz-adv-x="931" 
d="M256 -188h-297l795 1685h297z" />
    <glyph glyph-name="zero" unicode="0" horiz-adv-x="1185" 
d="M580 193q113 0 173 90q59 90 81 267t22 214q0 223 -160 223q-115 0 -177 -89t-89 -300q-12 -104 -12 -176q0 -229 162 -229zM549 -25q-453 0 -453 453q0 86 13 178q76 604 618 604q446 0 447 -450q-1 -82 -13 -168q-41 -305 -183 -461t-429 -156z" />
    <glyph glyph-name="one" unicode="1" horiz-adv-x="823" 
d="M729 0h-698l20 154l174 12q18 2 25 9q6 7 10 32l102 735q6 35 -20 43l-172 37l25 158h503l-135 -973q-4 -25 1 -32t28 -9l160 -14z" />
    <glyph glyph-name="two" unicode="2" horiz-adv-x="1056" 
d="M717 883q0 106 -129 106q-88 0 -126 -38t-52 -146l-277 26q32 236 184 315q129 66 320 66t285 -83t94 -218q0 -96 -48 -185t-108 -148t-182 -160l-256 -219h299q25 0 31 22l51 164h213l-53 -385h-928l26 190l316 281q229 203 285 267t55 145z" />
    <glyph glyph-name="three" unicode="3" horiz-adv-x="1056" 
d="M973 270q1 -216 -143 -328t-384 -112q-154 0 -280 54t-193 141l181 174q133 -137 290 -138q227 0 228 201q0 162 -185 162q-72 0 -143 -12l27 204l96 11q123 14 191 76t69 167q0 119 -133 119q-88 0 -127 -38t-53 -144l-283 27q45 377 500 376q397 0 397 -317
q0 -131 -74 -218t-192 -124v-8q211 -57 211 -273z" />
    <glyph glyph-name="four" unicode="4" horiz-adv-x="1124" 
d="M881 -137h-277l35 264h-582l29 211l530 879l244 -125l-473 -725h285l47 335l282 37l-53 -372h166l-33 -240h-166z" />
    <glyph glyph-name="five" unicode="5" horiz-adv-x="1067" 
d="M678 713q152 0 241 -93t89 -266q0 -232 -146 -378t-409 -146q-162 0 -287 52t-197 141l183 178q125 -137 292 -138q113 1 185 63q71 62 71 170t-47 146q-47 39 -114 39q-111 0 -205 -88l-189 88l144 699h751l-34 -258h-521l-73 -289q114 80 266 80z" />
    <glyph glyph-name="six" unicode="6" horiz-adv-x="1130" 
d="M430 449q0 -248 156 -248q104 0 149 82t45 182q0 145 -135 145q-98 1 -213 -67q-2 -37 -2 -94zM769 1114q-124 0 -210 -105t-106 -261q155 84 305 84t242 -87q92 -86 92 -251q0 -254 -148 -386t-380 -132q-234 0 -338 140t-103 378q0 238 87 443q48 116 120 204t188 144
t260 56q230 0 373 -141l-156 -174q-102 88 -226 88z" />
    <glyph glyph-name="seven" unicode="7" horiz-adv-x="1058" 
d="M408 922q-23 0 -31 -27l-53 -172l-213 -16l67 473h987l-37 -232q-206 -200 -366 -492t-209 -593h-322q117 625 564 1059h-387z" />
    <glyph glyph-name="eight" unicode="8" horiz-adv-x="1058" 
d="M805 1016q0 123 -146 123q-80 0 -130 -41q-50 -42 -50 -106q-1 -64 47 -108t138 -96q141 121 141 228zM509 180q95 0 149 48t54 110t-32 103q-33 42 -68 65q-36 23 -70 41t-36 20t-14 8q-172 -129 -173 -253q-1 -66 47 -104t143 -38zM1028 389q0 -195 -152 -305
t-376 -109q-442 0 -441 306q0 244 250 411q-123 100 -123 271t136 275t336 103q202 0 304 -78q101 -79 101 -214q0 -199 -197 -365q162 -100 162 -295z" />
    <glyph glyph-name="nine" unicode="9" horiz-adv-x="1130" 
d="M637 987q-94 0 -145 -80q-52 -80 -52 -178t31 -138t115 -40t198 70q6 59 7 110q4 256 -154 256zM465 59q135 1 204 91t95 256q-143 -84 -295 -84t-247 94t-95 264q0 246 145 388t392 142q434 0 434 -510q0 -183 -33 -324q-33 -142 -81 -228t-116 -160t-176 -115t-230 -41
t-232 44t-177 114l150 180q127 -111 262 -111z" />
    <glyph glyph-name="colon" unicode=":" horiz-adv-x="565" 
d="M442 156q0 -180 -198 -181q-156 0 -156 138q0 182 201 182q153 0 153 -139zM561 934q0 -180 -199 -180q-156 0 -155 137q0 182 201 182q153 0 153 -139z" />
    <glyph glyph-name="semicolon" unicode=";" horiz-adv-x="528" 
d="M553 934q0 -180 -199 -180q-156 0 -155 137q0 182 200 182q154 0 154 -139zM416 150q0 -53 -64 -160l-145 -234l-133 41l88 219q8 18 -8 25l-80 29l78 221q132 -2 198 -29t66 -112z" />
    <glyph glyph-name="less" unicode="&#x3c;" horiz-adv-x="1167" 
d="M977 172l-758 281l39 286l836 291l36 -231l-626 -201l573 -201z" />
    <glyph glyph-name="equal" unicode="=" horiz-adv-x="1167" 
d="M1028 647h-788l32 240h791zM977 266h-791l33 240h791z" />
    <glyph glyph-name="greater" unicode="&#x3e;" horiz-adv-x="1167" 
d="M1028 453l-840 -281l-28 238l631 200l-570 201l94 219l752 -291z" />
    <glyph glyph-name="question" unicode="?" horiz-adv-x="1081" 
d="M598 162q0 -186 -201 -187q-156 0 -155 131q0 188 200 189q156 0 156 -133zM821 1088q0 142 -155 143q-86 0 -128 -11t-51 -44l-30 -123l-254 -19l49 355q260 94 459 94q444 0 444 -377q0 -205 -131 -341t-387 -175l-25 -197h-309l51 381q167 12 304 79q75 36 119 98
q44 61 44 137z" />
    <glyph glyph-name="at" unicode="@" horiz-adv-x="1722" 
d="M995 664q-102 0 -192 -124t-90 -294q0 -92 67 -92q78 -1 191 108l112 377q-31 25 -88 25zM768 -383q-301 0 -472 153t-171 445q0 414 262 681t660 267q293 0 457 -147t163 -412q0 -313 -136 -471t-357 -158q-174 0 -205 142q-164 -141 -271 -142q-197 0 -196 250
q0 229 153 409q154 179 377 179q150 0 277 -65l-80 -267q-65 -194 -68 -270q0 -68 74 -68q98 1 163 137t64 298q0 401 -448 401q-166 0 -299 -65q-240 -117 -338 -407q-43 -128 -43 -263q0 -223 119 -337q119 -113 325 -113t391 63l25 -168q-172 -72 -426 -72z" />
    <glyph glyph-name="A" unicode="A" horiz-adv-x="1523" 
d="M975 612l-105 559h-14l-260 -559h379zM1487 0h-629l21 150l168 18l-39 223h-504l-101 -223l156 -18l-22 -150h-562l23 150l92 22q41 10 55 41l613 1270h356l262 -1276q4 -25 45 -35l88 -22z" />
    <glyph glyph-name="B" unicode="B" horiz-adv-x="1327" 
d="M705 860q220 0 280 120q25 50 25 133t-56 115t-166 32h-112l-53 -400h82zM674 221q156 0 234 55t79 201q0 178 -223 178h-170l-59 -434h139zM696 0h-659l22 150l127 14q23 4 30 11t9 30l150 1069q4 23 -2 31t-27 10l-125 14l21 154h676q209 0 302 -88t93 -240t-85 -246
t-214 -133v-6q145 -16 218 -95t73 -210q0 -245 -164 -355t-445 -110z" />
    <glyph glyph-name="C" unicode="C" horiz-adv-x="1372" 
d="M738 -25q-316 0 -467 170t-150 469q0 404 222 650t634 245q127 1 252 -31t196 -85l-53 -402l-219 19l-6 190q0 37 -27 45q-68 27 -172 27q-229 0 -365 -165t-137 -470q0 -211 88 -320t241 -109q154 0 222 28q23 12 31 38l59 195h216l-54 -381q-195 -113 -511 -113z" />
    <glyph glyph-name="D" unicode="D" horiz-adv-x="1513" 
d="M651 219q266 0 411 184q144 184 144 469q0 205 -98 297t-303 93h-125l-143 -1043h114zM655 0h-618l22 154l129 14q20 2 27 9q6 7 10 30l150 1069q6 37 -27 41l-127 14l21 152h651q323 0 477 -158t154 -444q0 -395 -220 -638t-649 -243z" />
    <glyph glyph-name="E" unicode="E" horiz-adv-x="1269" 
d="M997 1262h-317l-55 -404h471l-33 -227h-471l-55 -412h362q29 0 35 23l57 180h215l-57 -422h-1112l20 150l129 14q23 4 30 11t9 30l150 1071q4 23 -1 31t-26 10l-127 14l21 152h1067l-58 -414l-215 10l-6 156q-2 27 -33 27z" />
    <glyph glyph-name="F" unicode="F" horiz-adv-x="1218" 
d="M989 1262h-309l-55 -402h462l-30 -227h-463l-59 -424q-4 -25 1 -32t25 -9l293 -16l-18 -152h-797l20 150l127 14q23 4 30 11t9 30l150 1071q4 23 -1 31t-26 10l-127 14l21 152h1061l-58 -414l-217 10l-6 156q-2 27 -33 27z" />
    <glyph glyph-name="G" unicode="G" horiz-adv-x="1468" 
d="M942 1272q-227 0 -361 -173t-135 -464q0 -424 361 -424q117 0 180 20q23 6 29 35l39 264h-226l54 185h616l-22 -164l-82 -8q-35 -2 -37 -29l-60 -440q-218 -98 -544 -98t-481 174t-154 464q0 400 223 648t637 247q121 -1 246 -31t202 -87l-51 -387l-221 16l-6 182
q0 37 -25 43q-84 27 -182 27z" />
    <glyph glyph-name="H" unicode="H" horiz-adv-x="1642" 
d="M1534 0h-635l23 150l127 14q20 2 26 10t10 31l64 442h-551l-61 -440q-4 -25 0 -32t24 -9l133 -16l-20 -150h-635l20 150l129 14q20 2 27 10q6 8 10 31l150 1069q4 23 -2 31t-27 10l-123 14l21 154h635l-21 -154l-137 -16q-23 -4 -29 -10t-8 -29l-53 -397h549l55 397
q4 25 -1 32t-26 9l-125 14l21 154h635l-21 -154l-135 -16q-23 -2 -28 -8t-9 -31l-149 -1067q-4 -25 0 -32t26 -9l133 -16z" />
    <glyph glyph-name="I" unicode="I" horiz-adv-x="782" 
d="M696 0h-673l16 150l149 14q20 2 27 9q6 7 10 32l152 1069q4 23 -2 31t-27 10l-143 14l20 154h676l-22 -154l-156 -16q-23 -2 -28 -8t-9 -31l-149 -1067q-4 -25 0 -32t24 -9l154 -16z" />
    <glyph glyph-name="J" unicode="J" 
d="M401 -25q-115 0 -220 25t-146 55l51 365l217 -17l2 -145q0 -25 14 -29q33 -12 87 -12q54 1 80 27q24 26 34 92l131 940q6 37 -28 39l-179 14l21 154h690l-22 -154l-138 -16q-24 -3 -28 -12t-6 -25l-134 -942q-25 -184 -125 -272t-301 -87z" />
    <glyph glyph-name="K" unicode="K" horiz-adv-x="1505" 
d="M1454 0h-418l-14 10l-72 172l-209 428l-174 -180l-32 -221q-4 -25 0 -32t24 -9l135 -16l-20 -152h-635l20 152l127 14q23 2 30 9t9 32l150 1069q6 37 -27 41l-123 14l19 152h635l-19 -152l-139 -16q-23 -4 -29 -10t-8 -29l-74 -520l551 557l-121 16l21 154h526l-20 -154
l-86 -14q-41 -6 -66 -35l-430 -436l313 -633q16 -33 56 -39l121 -20z" />
    <glyph glyph-name="L" unicode="L" horiz-adv-x="1243" 
d="M897 219q29 0 37 23l59 204h219l-61 -446h-1112l20 152l127 14q23 4 30 11t9 30l150 1069q4 23 -1 31t-26 10l-123 14l17 152h669l-20 -152l-170 -16q-21 -2 -27 -9t-10 -30l-147 -1057h360z" />
    <glyph glyph-name="M" unicode="M" horiz-adv-x="1929" 
d="M1823 0h-662l21 150l168 14q18 2 25 10t11 31l109 770h-8l-383 -680h-313l-203 678h-10l-107 -766q-4 -27 0 -33t25 -8l172 -16l-19 -150h-610l18 150l129 14q23 4 30 11t9 32l150 1069q6 37 -27 41l-123 14l17 152h503l263 -899h10l491 899h519l-19 -150l-135 -16
q-25 -2 -30 -9t-9 -34l-152 -1069q-6 -35 27 -39l133 -16z" />
    <glyph glyph-name="N" unicode="N" horiz-adv-x="1662" 
d="M1397 0h-328l-491 1075l-121 -868q-4 -25 1 -32t25 -9l133 -16l-18 -150h-559l18 150l129 14q23 4 30 11t9 30l150 1071q4 25 -1 32t-26 9l-123 14l17 152h497l484 -1077l123 868q4 23 -1 31t-26 10l-125 14l18 154h557l-20 -154l-137 -16q-25 -4 -29 -13q-4 -10 -6 -26z
" />
    <glyph glyph-name="O" unicode="O" horiz-adv-x="1550" 
d="M451 635q0 -408 317 -408q196 -1 318 147t141 466q0 80 -4 114q-35 303 -301 303q-152 0 -263 -94q-208 -176 -208 -528zM721 -25q-309 0 -455 161q-145 161 -145 450q0 406 218 664t619 259q303 0 450 -163q146 -164 146 -435q0 -438 -220 -687t-613 -249z" />
    <glyph glyph-name="P" unicode="P" horiz-adv-x="1300" 
d="M709 766q228 0 291 144q28 62 28 164t-61 144t-170 42h-119l-68 -494h99zM909 1483q231 1 337 -103t106 -282q0 -276 -165 -414t-460 -137h-147l-45 -338q-4 -25 0 -32t24 -9l287 -16l-23 -152h-786l22 152l129 14q23 4 30 11t9 30l148 1067q4 23 -2 31t-27 10l-123 14
l19 154h667z" />
    <glyph glyph-name="Q" unicode="Q" horiz-adv-x="1550" 
d="M451 635q0 -408 317 -408q156 -1 264 93q196 170 195 554q0 383 -305 383q-152 0 -263 -94q-208 -176 -208 -528zM1199 -344q-95 0 -197 30t-161 64q-160 95 -259 95q-100 -1 -234 -89l-104 185q113 78 211 102v4q-334 162 -334 539q0 406 218 664t619 259
q303 0 450 -163q146 -164 146 -435q0 -412 -191 -640t-560 -263v-4q256 -123 440 -123q68 1 152 13l-9 -226q-92 -12 -187 -12z" />
    <glyph glyph-name="R" unicode="R" horiz-adv-x="1378" 
d="M713 819q307 0 307 262q0 95 -57 137t-183 42h-100l-59 -441h92zM915 1483q221 1 325 -101t103 -262q0 -309 -323 -440q39 -20 59 -57t35 -107l68 -303q8 -37 51 -43l125 -16l-21 -154h-422l-12 10l-112 504q-10 49 -32 71t-73 21h-96l-55 -395q-4 -25 0 -32t24 -9
l121 -16l-18 -154h-621l18 154l129 14q20 2 27 9q6 7 10 32l152 1067q6 37 -27 41l-123 14l17 152h671z" />
    <glyph glyph-name="S" unicode="S" horiz-adv-x="1204" 
d="M794 1274q-98 0 -176 -49t-78 -139t108 -144q49 -23 128 -52q80 -28 120 -45q121 -52 189 -136q68 -85 68 -232q0 -250 -174 -376t-449 -126q-131 0 -265 27t-193 57l55 400h223l15 -193q2 -35 36 -45q66 -16 158 -16q281 0 281 213q0 80 -56 122t-204 94t-213 97
q-139 100 -140 291q0 238 170 362t434 125q209 0 406 -84l-55 -399l-224 18l-4 177q0 37 -30 45q-32 8 -130 8z" />
    <glyph glyph-name="T" unicode="T" horiz-adv-x="1392" 
d="M471 1260q-27 0 -33 -23l-57 -178h-219l57 424h1292l-57 -424h-217l-8 178q-2 14 -7 18t-22 5h-209l-145 -1053q-4 -23 0 -30t24 -9l222 -18l-21 -150h-803l23 152l207 14q20 2 26 10t11 31l145 1053h-209z" />
    <glyph glyph-name="U" unicode="U" horiz-adv-x="1585" 
d="M248 412q0 51 10 127l100 737q6 39 -24 41l-125 14l20 152h635l-20 -152l-137 -16q-23 -2 -28 -8t-9 -31l-97 -686q-12 -80 -12 -144q0 -114 55 -166t198 -52q144 0 220 82q76 83 103 278l96 688q4 23 -1 31t-26 10l-125 14l21 152h594l-21 -152l-139 -16q-23 -2 -28 -9
t-7 -30l-104 -746q-41 -290 -196 -422t-424 -132t-399 107q-130 108 -130 329z" />
    <glyph glyph-name="V" unicode="V" horiz-adv-x="1462" 
d="M918 0h-410l-229 1276q-4 25 -43 35l-89 22l23 150h627l-23 -150l-166 -18l162 -1016h10l432 1016l-153 18l22 150h549l-22 -150l-88 -22q-43 -12 -60 -51z" />
    <glyph glyph-name="W" unicode="W" horiz-adv-x="2070" 
d="M1606 0h-408l-88 750h-6l-293 -750h-399l-127 1260q-1 28 -9 36t-34 15l-97 22l23 150h612l-22 -150l-170 -20l96 -998h10l355 893h307l98 -913h12l344 1018l-161 20l22 150h563l-22 -150l-98 -22q-37 -6 -56 -54z" />
    <glyph glyph-name="X" unicode="X" horiz-adv-x="1550" 
d="M1473 0h-658l23 150l159 18l-225 385l-321 -385l151 -18l-22 -150h-570l21 150l121 22q33 8 57 39l448 518l-325 547q-14 27 -43 35l-101 22l25 150h643l-22 -150l-158 -18l215 -379l323 379l-149 18l25 150h540l-20 -150l-103 -22q-29 -8 -57 -39l-444 -510l340 -555
q20 -31 51 -37l96 -20z" />
    <glyph glyph-name="Y" unicode="Y" horiz-adv-x="1357" 
d="M1057 0h-787l19 152l205 14q18 2 24 9t10 32l50 346l-299 723q-8 23 -46 35l-86 22l23 150h618l-22 -150l-160 -18l178 -492h13l311 492l-152 18l23 150h534l-22 -150l-86 -22q-43 -14 -57 -41l-459 -713l-49 -350q-4 -23 0 -30t26 -9l211 -16z" />
    <glyph glyph-name="Z" unicode="Z" horiz-adv-x="1347" 
d="M530 1262q-29 0 -34 -23l-60 -188l-223 -11l63 443h1100l-26 -207l-883 -1057h494q29 0 36 23l68 219h213l-61 -461h-1164l29 199l889 1063h-441z" />
    <glyph glyph-name="bracketleft" unicode="[" horiz-adv-x="636" 
d="M516 -293h-459l250 1776h459l-16 -146l-136 -22q-20 -2 -27 -11t-12 -30l-190 -1356q-6 -39 27 -43l129 -22z" />
    <glyph glyph-name="backslash" unicode="\" horiz-adv-x="894" 
d="M827 -188h-282l-322 1685h281z" />
    <glyph glyph-name="bracketright" unicode="]" horiz-adv-x="630" 
d="M422 -293h-461l19 146l133 22q33 4 39 41l190 1356q6 39 -27 43l-129 20l25 148h461z" />
    <glyph glyph-name="asciicircum" unicode="^" horiz-adv-x="1247" 
d="M1233 612h-293l-205 492l-334 -492h-292l507 748h314z" />
    <glyph glyph-name="underscore" unicode="_" 
d="M973 -371h-1024l31 219h1021z" />
    <glyph glyph-name="grave" unicode="`" 
d="M938 1251l-131 -102l-324 299l191 160z" />
    <glyph glyph-name="a" unicode="a" horiz-adv-x="1239" 
d="M672 854q-84 0 -136 -47q-88 -81 -120 -263q-12 -71 -13 -134q0 -178 117 -179q104 0 266 162l54 385q-84 76 -168 76zM88 385q0 254 113 466q57 109 161 173t255 64t268 -117l39 96h262q-41 -201 -51 -268l-82 -594q-4 -23 1 -30t25 -9l97 -14l-23 -152h-395l24 166
l-10 2q-100 -98 -185 -145t-188 -48q-311 0 -311 410z" />
    <glyph glyph-name="b" unicode="b" horiz-adv-x="1230" 
d="M649 213q86 0 139 68q93 119 94 333t-106 213q-88 1 -260 -153l-55 -379q102 -82 188 -82zM913 1087q293 0 293 -395q0 -242 -99 -461q-51 -115 -151 -185t-235 -71q-172 0 -301 129l-6 -2l-25 -102h-297q53 184 70 299l143 1014q2 33 -20 43l-105 35l23 155h428
l-92 -641l4 -2q197 184 370 184z" />
    <glyph glyph-name="c" unicode="c" horiz-adv-x="1028" 
d="M84 422q0 326 175 496t450 169q221 0 342 -86l-45 -321l-209 10l-6 139q0 23 -15 29q-35 14 -100 14q-115 0 -195 -102t-80 -315q0 -250 203 -250q114 0 270 61l52 -190q-176 -100 -398 -100t-334 119q-110 120 -110 327z" />
    <glyph glyph-name="d" unicode="d" horiz-adv-x="1245" 
d="M676 854q-84 0 -138 -46q-90 -76 -122 -267q-12 -72 -13 -144q0 -166 117 -166q106 0 266 164l56 389q-82 70 -166 70zM88 381q0 248 111 462q57 109 161 177t251 68t263 -89l41 316q4 35 -20 41l-102 35l24 155h422l-186 -1341q-4 -23 1 -30t25 -9l97 -14l-21 -152h-397
l24 164l-10 4q-100 -98 -184 -145t-187 -48q-313 0 -313 406z" />
    <glyph glyph-name="e" unicode="e" horiz-adv-x="1036" 
d="M750 788q0 78 -92 78t-158 -70q-65 -70 -88 -192q338 47 338 184zM84 412q0 313 174 494t434 181q166 -1 251 -71t85 -186q0 -224 -197 -318q-168 -80 -432 -106q12 -201 203 -201q121 0 297 74l45 -201q-221 -102 -436 -102t-320 117q-104 118 -104 319z" />
    <glyph glyph-name="f" unicode="f" horiz-adv-x="868" 
d="M250 862h-133l26 205h152l18 131q29 199 133 286t281 87q95 0 195 -32t157 -77l-112 -190q-119 74 -207 74q-125 0 -144 -138l-16 -121q-2 -20 14 -20h316l-29 -205h-332l-182 -1296h-305l182 1276q4 20 -14 20z" />
    <glyph glyph-name="g" unicode="g" horiz-adv-x="1206" 
d="M662 854q-98 0 -158 -84q-99 -136 -101 -362q0 -88 29 -126t88 -38q110 -1 266 151l56 381q-82 78 -180 78zM401 -12q-313 0 -313 397q0 250 112 464q56 107 160 173t242 65q170 0 283 -116l39 96h264q-43 -195 -53 -274l-115 -826q-57 -424 -500 -424q-139 0 -265 37
t-181 76l96 190q37 -28 131 -58q93 -30 201 -30t171 54t77 178l24 176l-6 4q-104 -90 -185 -136t-182 -46z" />
    <glyph glyph-name="h" unicode="h" horiz-adv-x="1267" 
d="M801 821q-94 0 -269 -145l-65 -469q-4 -25 1 -32t28 -9l102 -14l-20 -152h-560l21 154l90 12q20 4 28 11q7 7 9 30l156 1106q6 35 -19 43l-102 35l22 155h418l-90 -647l6 -4q88 73 123 101q34 28 106 60t146 31q110 1 174 -65t63 -184q0 -33 -8 -107l-74 -524
q-4 -25 0 -32t27 -9l100 -14l-20 -152h-438l-4 8l39 221l61 453q26 139 -51 139z" />
    <glyph glyph-name="i" unicode="i" horiz-adv-x="651" 
d="M573 0h-442l-4 10l49 277l76 547q6 35 -21 43l-100 34l21 156h436l-121 -860q-4 -25 1 -32t28 -9l98 -14zM441 1231q-169 1 -169 167q0 84 56 140t143 57q172 0 172 -151q0 -98 -57 -156q-58 -57 -145 -57z" />
    <glyph glyph-name="j" unicode="j" horiz-adv-x="645" 
d="M441 1231q-171 1 -171 167q0 84 56 140t145 57q172 0 172 -151q0 -96 -57 -155q-58 -58 -145 -58zM27 -457q-109 0 -198 36t-122 69l105 170q82 -54 158 -54t109 38q34 38 48 141l127 891q2 33 -21 43l-104 34l21 156h436l-162 -1176q-25 -182 -124 -265t-273 -83z" />
    <glyph glyph-name="k" unicode="k" horiz-adv-x="1245" 
d="M1194 0h-385l-6 4l-68 225l-108 295l-129 -123l-29 -194q-4 -25 0 -32t27 -9l102 -14l-20 -152h-560l19 154l94 12q20 4 28 11q7 7 9 30l154 1106q6 33 -21 43l-102 35l22 155h436l-120 -870l315 293q78 71 138 95t120 24t133 -13l-22 -178q-113 6 -207 -82l-123 -115
l178 -499q12 -31 57 -37l91 -14z" />
    <glyph glyph-name="l" unicode="l" horiz-adv-x="651" 
d="M571 0h-442l-6 10l49 277l145 1026q6 35 -20 43l-102 35l22 155h436l-188 -1339q-4 -25 0 -32t27 -9l98 -14z" />
    <glyph glyph-name="m" unicode="m" horiz-adv-x="1800" 
d="M1337 817q-66 0 -225 -141l-65 -469q-4 -25 0 -32t24 -9l103 -14l-21 -152h-442l-4 8l45 260l59 414q12 59 5 95t-48 36q-80 0 -233 -137l-64 -469q-4 -25 0 -32t27 -9l102 -14l-20 -152h-562l21 154l90 12q20 4 28 11q7 7 9 30l86 624q6 35 -19 43l-100 37l23 156h405
l-22 -168l6 -2q79 67 115 95t112 62t155 34t131 -49q52 -48 58 -138l6 -2q66 57 111 91t117 66t139 31q111 0 161 -55t54 -166q0 -51 -10 -133l-74 -526q-4 -25 0 -32t27 -9l100 -14l-21 -152h-444l-4 6l43 242l63 434q12 68 2 102t-49 33z" />
    <glyph glyph-name="n" unicode="n" horiz-adv-x="1269" 
d="M801 823q-98 0 -266 -147l-64 -469q-4 -25 0 -32t27 -9l102 -14l-20 -152h-562l21 154l90 12q20 4 28 11q7 7 9 30l86 624q6 35 -19 43l-100 37l23 156h405l-22 -168l6 -2q74 63 119 96q46 33 118 64t148 30q233 0 241 -243q0 -61 -8 -113l-73 -524q-4 -25 0 -32t24 -9
l103 -14l-21 -152h-442l-4 6l45 250l59 426q27 141 -53 141z" />
    <glyph glyph-name="o" unicode="o" horiz-adv-x="1183" 
d="M575 190q117 0 191 111t74 338t-170 227q-117 0 -194 -108t-77 -338t176 -230zM551 -25q-233 0 -350 118t-117 323q0 303 164 487t457 184q241 -1 349 -119t107 -315q-1 -309 -157 -493t-453 -185z" />
    <glyph glyph-name="p" unicode="p" horiz-adv-x="1236" 
d="M652 213q90 0 144 68q93 117 95 346q0 201 -107 200q-88 1 -260 -153l-55 -381q93 -80 183 -80zM913 1087q299 0 299 -409q0 -241 -101 -455q-51 -111 -153 -179t-237 -69q-114 1 -204 53q-30 18 -79 52l-45 -307q-2 -19 4 -25t25 -8l207 -21l-23 -153h-547l-4 8l60 342
l127 915q6 35 -19 43l-100 37l22 156h410l-25 -164l7 -2q201 186 376 186z" />
    <glyph glyph-name="q" unicode="q" horiz-adv-x="1208" 
d="M664 854q-96 0 -158 -84q-100 -137 -100 -362q0 -176 116 -177q106 0 266 164l54 381q-82 78 -178 78zM385 -25q-295 0 -295 410q0 253 112 465q56 106 157 172t233 65q166 0 295 -116l39 96h262q-37 -170 -51 -274l-142 -1018q-4 -25 1 -32t26 -9l96 -13l-20 -155h-613
l23 155l174 17q39 2 45 37l55 391l-8 4q-72 -61 -115 -94t-121 -67t-153 -34z" />
    <glyph glyph-name="r" unicode="r" horiz-adv-x="962" 
d="M705 836q-57 0 -160 -107l-72 -520q-4 -25 1 -32t28 -9l194 -16l-22 -152h-656l21 154l94 12q20 2 27 10q6 8 10 31l86 624q4 35 -20 43l-103 37l23 156h405l-26 -184l6 -4q145 209 325 208q94 0 158 -18l-51 -373l-240 9l-6 106q-2 25 -22 25z" />
    <glyph glyph-name="s" unicode="s" horiz-adv-x="978" 
d="M580 893q-154 0 -154 -98q0 -45 38 -69t114 -50t104 -35q28 -10 84 -40q57 -31 83 -59q25 -28 49 -79t24 -113q0 -188 -138 -281t-348 -94q-131 0 -246 25t-145 47l39 297l209 -12l6 -119q0 -25 23 -33q55 -18 142 -18t133 30t46 75q0 46 -29 73q-30 27 -58 37
q-28 9 -102 31t-116 40q-43 18 -94 55q-101 71 -101 237q0 165 133 256t346 91t355 -59l-41 -297l-213 12l-4 107q0 27 -25 33q-41 10 -114 10z" />
    <glyph glyph-name="t" unicode="t" horiz-adv-x="864" 
d="M471 -25q-165 1 -233 57t-68 183q0 41 6 90l74 537q4 20 -12 20h-142l27 189q131 14 204 88t111 239h191l-41 -291q-2 -20 14 -20h283l-29 -205h-299l-68 -489q-6 -41 -6 -81q0 -89 119 -87q76 0 164 33l37 -183q-168 -80 -332 -80z" />
    <glyph glyph-name="u" unicode="u" horiz-adv-x="1275" 
d="M168 231q0 61 8 117l68 496q4 27 0 34t-27 9l-80 14l25 166h399l14 -14l-90 -652q-8 -71 -8 -99q0 -62 66 -62q94 0 258 145l63 463q4 25 0 31t-26 10l-66 10l27 168h387l14 -16l-121 -842q-6 -39 23 -43l102 -14l-20 -152h-406l21 164l-6 2q-6 -4 -34 -29t-39 -33
t-40 -30q-122 -95 -283 -97q-229 -4 -229 254z" />
    <glyph glyph-name="v" unicode="v" horiz-adv-x="1212" 
d="M743 0h-354l-184 862q-4 18 -11 24t-26 11l-82 18l20 152h392l18 -18l35 -234l90 -516h6l295 600l-133 19l22 149h402l24 -63z" />
    <glyph glyph-name="w" unicode="w" horiz-adv-x="1753" 
d="M1370 0h-340l-84 686h-6l-242 -686h-366l-129 862q-4 29 -35 35l-84 18l27 152h378l17 -18l14 -187l64 -553h6l270 740h322l90 -748h6l252 602l-113 12l25 152h340l22 -59z" />
    <glyph glyph-name="x" unicode="x" horiz-adv-x="1208" 
d="M1151 0h-352l-23 18l-92 170l-111 189l-186 -209l109 -18l-17 -150h-479l16 147l90 17q31 4 58 35l301 329l-207 332q-16 29 -41 35l-80 18l25 154h325l21 -16l96 -185l90 -151l178 186l-100 14l27 152h465l-21 -152l-90 -20q-25 -4 -57 -39l-293 -295l223 -358
q20 -33 45 -37l105 -16z" />
    <glyph glyph-name="y" unicode="y" horiz-adv-x="1163" 
d="M190 -457q-100 0 -183 34t-120 69l105 174q98 -59 196 -59t183 143l57 102l-229 856q-8 27 -37 35l-80 18l24 152h361l20 -23l148 -692h10l260 545l-125 18l23 152h379l28 -63l-594 -1170q-82 -154 -175 -222t-251 -69z" />
    <glyph glyph-name="z" unicode="z" horiz-adv-x="1052" 
d="M410 874q-20 0 -31 -24l-39 -117l-207 -8l47 342h889l-25 -176l-612 -701h295q23 0 31 27l45 141l211 9l-51 -367h-920l25 172l622 702h-280z" />
    <glyph glyph-name="braceleft" unicode="{" horiz-adv-x="675" 
d="M127 -59q0 75 44 227t44 218t-29 94q-29 26 -96 30l25 162q71 4 107 30q94 66 71 472q-7 178 103 248t364 67l12 -164q-106 -14 -135 -44q-29 -31 -31 -115t-1 -176t1 -107q-6 -129 -47 -189t-125 -104q102 -57 103 -180q0 -78 -44 -228t-44 -206t26 -78t100 -39
l-43 -164q-225 4 -315 57t-90 189z" />
    <glyph glyph-name="bar" unicode="|" horiz-adv-x="583" 
d="M352 -293h-280l250 1776h280z" />
    <glyph glyph-name="braceright" unicode="}" horiz-adv-x="696" 
d="M655 1243q0 -75 -44 -227t-44 -218t29 -94q29 -26 96 -30l-24 -162q-70 -4 -107 -30q-95 -67 -72 -472q7 -178 -103 -248t-363 -67l-13 164q106 14 135 44q29 31 31 115t1 176t-1 107q6 129 47 189t125 104q-102 57 -102 180q0 78 44 228t44 205q0 56 -26 78t-101 40
l43 164q225 -4 315 -57t90 -189z" />
    <glyph glyph-name="asciitilde" unicode="~" horiz-adv-x="1073" 
d="M856 594q-88 0 -240 47t-206 47t-87 -20q-34 -20 -75 -78l-139 74q47 120 125 196t168 76q88 0 232 -47t200 -47t80 22q26 22 55 78l151 -59q-48 -149 -112 -219t-152 -70z" />
    <glyph glyph-name="uni00A0" unicode="&#xa0;" horiz-adv-x="413" 
 />
    <glyph glyph-name="exclamdown" unicode="&#xa1;" horiz-adv-x="579" 
d="M225 901q0 186 199 186q158 0 158 -131q0 -188 -203 -188q-154 0 -154 133zM238 670h260l-68 -727l-51 -363h-330l51 363z" />
    <glyph glyph-name="cent" unicode="&#xa2;" horiz-adv-x="1062" 
d="M115 487q0 250 116 407q117 157 328 196l33 215h256l-33 -211q154 -18 256 -76l-45 -307l-205 10l-4 129q0 20 -18 27q-47 14 -105 14q-118 0 -186 -98t-68 -293q0 -115 42 -168t130 -53q49 0 103 12q20 4 26 26l43 134l209 8l-41 -307q-115 -63 -280 -80l-27 -209h-254
l29 217q-305 63 -305 407z" />
    <glyph glyph-name="sterling" unicode="&#xa3;" horiz-adv-x="1130" 
d="M820 1116q-112 0 -154 -53q-43 -53 -58 -158l-16 -108h293l-31 -226h-287q-27 -244 -178 -372h408q23 0 28 24l52 162h213l-52 -385h-968l-9 184q100 55 141 122q40 67 60 218l6 47h-147l29 226h141l16 108q31 207 140 322q110 115 353 115t382 -134l-150 -176
q-100 84 -212 84z" />
    <glyph glyph-name="currency" unicode="&#xa4;" horiz-adv-x="1167" 
d="M598 330q100 0 155 68q54 70 54 178t-53 170q-52 62 -154 62t-154 -65q-52 -66 -53 -172q0 -106 52 -174q53 -67 153 -67zM1061 570q0 -114 -60 -230l181 -180l-170 -166l-178 176q-106 -61 -248 -61t-242 59l-174 -174l-164 164l180 182q-49 96 -49 224t53 222l-178 181
l168 170l168 -170q106 69 254 69t256 -65l164 164l162 -166l-172 -172q49 -113 49 -227z" />
    <glyph glyph-name="yen" unicode="&#xa5;" horiz-adv-x="1230" 
d="M1042 440h-262l-30 -227q-4 -23 0 -30t26 -9l211 -16l-22 -158h-789l21 158l200 16q25 2 32 10t11 31l29 225h-242l29 240h190l-219 412q-16 27 -43 34l-82 23l23 154h582l-21 -154l-141 -19l153 -311h11l243 311l-108 19l20 154h490l-23 -154l-88 -19q-25 -6 -65 -59
l-312 -391h207z" />
    <glyph glyph-name="brokenbar" unicode="&#xa6;" horiz-adv-x="583" 
d="M506 797h-281l97 686h280zM352 -293h-280l112 795h281z" />
    <glyph glyph-name="section" unicode="&#xa7;" horiz-adv-x="1165" 
d="M782 492q0 80 -137 118l-149 41q-96 -61 -97 -139q-1 -43 31 -68t100 -45l160 -49q92 62 92 142zM141 424q0 180 191 315q-88 70 -88 203q0 176 136 265t357 89t373 -61l-43 -297l-211 12l-4 111q0 29 -29 37q-45 12 -124 12t-125 -34t-46 -85q0 -74 195 -125
q14 -4 51 -14q98 -27 174 -77q103 -69 103 -212q0 -182 -181 -303q82 -86 82 -200t-76 -200q-76 -85 -184 -118q-109 -33 -240 -33q-130 0 -250 27t-149 49l39 278l213 -12l4 -117q0 -33 33 -40q47 -14 139 -15q182 0 183 123q0 57 -56 87t-149 51q-92 22 -134 38t-89 47
q-95 63 -95 199z" />
    <glyph glyph-name="dieresis" unicode="&#xa8;" 
d="M930 1505q132 -1 133 -133q0 -64 -46 -108q-47 -44 -113 -43t-101 35t-35 99t48 107t114 43zM504 1505q132 -1 133 -133q0 -64 -47 -108q-46 -44 -112 -43t-101 35t-35 99t48 107t114 43z" />
    <glyph glyph-name="copyright" unicode="&#xa9;" horiz-adv-x="1576" 
d="M1085 512v-217q-82 -49 -233 -49q-199 0 -292 108t-93 289q0 182 100 291t291 108q121 0 229 -41v-227h-110l-19 100q-2 18 -16 23q-39 14 -94 14q-197 0 -197 -268t209 -268q48 0 70 6t28 29l27 102h100zM829 115q244 0 384 141q141 141 141 387t-144 382t-378 136
q-232 0 -378 -142t-146 -387t138 -381q139 -136 383 -136zM1516 650q0 -304 -190 -493t-509 -189t-497 182q-178 184 -178 486t196 487q198 185 504 185t490 -176q184 -178 184 -482z" />
    <glyph glyph-name="ordfeminine" unicode="&#xaa;" horiz-adv-x="923" 
d="M556 1118q-56 0 -95 -52q-59 -79 -62 -216q0 -100 67 -100t161 90l37 237q-52 41 -108 41zM367 559q-215 0 -215 260t147 394q84 77 202 77t197 -76l27 62h203q-31 -147 -35 -180l-55 -375q-4 -15 0 -19t18 -6l66 -10l-17 -111h-293l15 103l-9 4q-70 -63 -126 -93
t-125 -30z" />
    <glyph glyph-name="guillemotleft" unicode="&#xab;" horiz-adv-x="954" 
d="M479 211h-248l-131 315l226 310h252l-205 -287q-16 -18 -8 -39zM864 211h-248l-131 315l226 310h252l-205 -287q-16 -18 -8 -39z" />
    <glyph glyph-name="logicalnot" unicode="&#xac;" horiz-adv-x="1167" 
d="M987 352h-227l28 193h-565l33 239h793z" />
    <glyph glyph-name="registered" unicode="&#xae;" horiz-adv-x="927" 
d="M524 1006h27q68 0 67 55q0 47 -59 47h-35v-102zM756 786h-123l-47 117q-8 19 -16 27t-23 8h-23v-82q0 -12 11 -14l40 -4v-52h-184v52l29 6q10 2 10 14v250q0 10 -10 12l-29 4v54h180q143 0 144 -111q0 -80 -72 -104q20 -6 35 -39l31 -68q4 -10 16 -12l31 -6v-52zM842 979
q0 133 -79 207t-202 74t-203 -78t-80 -209t76 -205t206 -74t206 76t76 209zM940 982q0 -169 -106 -274q-106 -106 -282 -106t-274 102q-100 102 -100 270q0 167 110 272q110 106 278 106t272 -100q102 -100 102 -270z" />
    <glyph glyph-name="macron" unicode="&#xaf;" 
d="M1014 1227h-649l28 205h649z" />
    <glyph glyph-name="degree" unicode="&#xb0;" horiz-adv-x="585" 
d="M649 1388q0 -104 -77 -180t-181 -76t-162 57q-57 55 -57 161t79 178t182 72t159 -54t57 -158zM315 1350q0 -86 86 -86q43 0 76 34t33 79q0 44 -23 68q-23 23 -65 23t-74 -34q-33 -34 -33 -84z" />
    <glyph glyph-name="plusminus" unicode="&#xb1;" horiz-adv-x="1167" 
d="M1024 543h-274l-37 -264h-246l37 264h-273l33 237h273l41 287h245l-41 -287h275zM948 0h-792l32 238h793z" />
    <glyph glyph-name="twosuperior" unicode="&#xb2;" horiz-adv-x="790" 
d="M604 1419q0 55 -67 56q-45 0 -68 -26t-33 -87l-254 22q25 156 128 212q104 56 258 56t232 -58t77 -162q0 -54 -26 -106q-25 -52 -51 -82t-85 -91l-281 -274h174q10 0 21 18l26 90h191l-41 -270h-715l23 155l313 302q98 96 138 148t40 97z" />
    <glyph glyph-name="threesuperior" unicode="&#xb3;" horiz-adv-x="813" 
d="M844 1014q0 -154 -114 -234t-290 -80q-113 0 -208 37t-146 99l152 145q84 -88 202 -88q61 0 99 31q37 31 36 84q0 96 -102 96q-43 0 -102 -10l24 168l66 6q158 16 157 137q0 66 -67 65q-49 0 -69 -22q-19 -23 -27 -86l-260 20q31 270 380 271q309 0 310 -209
q-1 -98 -57 -160t-130 -82l-2 -6q68 -14 108 -61t40 -121z" />
    <glyph glyph-name="acute" unicode="&#xb4;" 
d="M938 1427l-381 -278l-113 119l336 334z" />
    <glyph glyph-name="mu" unicode="&#xb5;" horiz-adv-x="1320" 
d="M506 301q0 -80 104 -80t211 90l107 756h309l-121 -860q-6 -35 23 -37l100 -14l-20 -156h-396l19 123l-8 4q-174 -135 -306 -135q-45 0 -82 12l-28 -364h-320l201 1427h309l-96 -678q-6 -51 -6 -88z" />
    <glyph glyph-name="paragraph" unicode="&#xb6;" horiz-adv-x="1345" 
d="M637 115q-225 0 -354 137t-129 377q0 322 191 507t529 185h560l-23 -156l-139 -16q-23 -2 -29 -9t-10 -30l-150 -1061q-57 -414 -469 -414q-260 0 -430 115l95 180q41 -28 130 -58t183 -30q217 0 252 236l151 1055h-131l-145 -1018h-82z" />
    <glyph glyph-name="periodcentered" unicode="&#xb7;" horiz-adv-x="487" 
d="M498 684q0 -180 -199 -180q-156 0 -156 137q0 182 201 182q154 0 154 -139z" />
    <glyph glyph-name="cedilla" unicode="&#xb8;" 
d="M350 -375q51 0 90 24t39 75q0 78 -125 81l70 256l143 -16l-37 -137q144 -41 144 -169t-90 -196q-90 -67 -200 -67t-142 16l32 141q25 -8 76 -8z" />
    <glyph glyph-name="onesuperior" unicode="&#xb9;" horiz-adv-x="634" 
d="M655 717h-534l18 129l107 8q25 2 28 27l82 567q4 25 -12 27l-113 26l23 131h408l-113 -751q-4 -17 -1 -21t19 -6l107 -10z" />
    <glyph glyph-name="ordmasculine" unicode="&#xba;" horiz-adv-x="849" 
d="M492 721q63 0 101 47t54 162q6 41 6 71q0 129 -100 129q-133 0 -162 -202q-4 -29 -4 -76q1 -131 105 -131zM467 559q-326 0 -326 293q0 216 138 337q115 101 292 101t253 -82t77 -211q0 -216 -132 -339q-107 -99 -302 -99z" />
    <glyph glyph-name="guillemotright" unicode="&#xbb;" horiz-adv-x="954" 
d="M317 211h-249l200 299q12 20 4 39l-122 287h249l138 -312zM702 211h-249l200 299q12 20 4 39l-122 287h249l138 -312z" />
    <glyph glyph-name="onequarter" unicode="&#xbc;" horiz-adv-x="2007" 
d="M1540 352l45 307h-6l-242 -307h203zM1739 0h-248l25 176h-412l24 168l457 569h287l-82 -561h111l-27 -174h-111zM705 -35h-285l946 1518h283zM698 575h-534l18 130l107 8q25 2 28 26l82 568q4 25 -12 26l-113 27l23 131h408l-113 -752q-4 -16 -1 -20t19 -6l107 -11z" />
    <glyph glyph-name="onehalf" unicode="&#xbd;" horiz-adv-x="2007" 
d="M1663 702q0 55 -68 56q-45 0 -67 -26t-33 -87l-254 23q25 156 128 212t257 56t232 -58t77 -163q1 -53 -25 -105t-52 -83q-26 -30 -84 -91l-281 -274h174q12 0 21 18l26 90h191l-41 -270h-715l22 156l314 301q98 96 138 148t40 97zM668 -35h-285l946 1518h283zM694 575
h-534l18 130l107 8q25 2 28 26l82 568q4 25 -12 26l-113 27l23 131h407l-112 -752q-4 -16 -1 -20t19 -6l107 -11z" />
    <glyph glyph-name="threequarters" unicode="&#xbe;" horiz-adv-x="2007" 
d="M1561 352l45 307h-7l-241 -307h203zM1759 0h-248l25 176h-412l25 168l457 569h286l-82 -561h111l-27 -174h-110zM760 -35h-285l946 1518h283zM881 872q0 -154 -114 -234t-290 -79q-113 0 -208 37t-146 98l151 146q84 -88 203 -88q61 0 98 30t37 84q0 96 -102 97
q-43 0 -102 -11l24 168l66 6q158 16 157 138q0 66 -67 65q-49 0 -69 -22q-19 -23 -27 -86l-261 20q31 270 381 270q309 0 310 -208q0 -98 -56 -160t-131 -82l-2 -6q68 -13 108 -61t40 -122z" />
    <glyph glyph-name="questiondown" unicode="&#xbf;" horiz-adv-x="1097" 
d="M612 901q0 186 201 186q156 0 156 -131q0 -188 -201 -188q-156 0 -156 133zM389 -26q0 -142 156 -142q86 0 128 11t50 44l31 123l254 19l-50 -355q-260 -94 -458 -94q-444 0 -445 377q0 205 131 341t387 175l25 197h309l-51 -381q-167 -12 -304 -79q-75 -36 -119 -98
t-44 -138z" />
    <glyph glyph-name="Agrave" unicode="&#xc0;" horiz-adv-x="1523" 
d="M1118 1569l-430 184l133 203l389 -250zM975 612l-105 559h-14l-260 -559h379zM1487 0h-629l21 150l168 18l-39 223h-504l-101 -223l156 -18l-22 -150h-562l23 150l92 22q41 10 55 41l613 1270h356l262 -1276q4 -25 45 -35l88 -22z" />
    <glyph glyph-name="Aacute" unicode="&#xc1;" horiz-adv-x="1523" 
d="M1223 1745l-461 -174l-66 145l434 240zM975 612l-105 559h-14l-260 -559h379zM1487 0h-629l21 150l168 18l-39 223h-504l-101 -223l156 -18l-22 -150h-562l23 150l92 22q41 10 55 41l613 1270h356l262 -1276q4 -25 45 -35l88 -22z" />
    <glyph glyph-name="Acircumflex" unicode="&#xc2;" horiz-adv-x="1523" 
d="M1303 1686l-125 -115l-220 166l-264 -166l-100 115l280 229h213zM975 612l-105 559h-14l-260 -559h379zM1487 0h-629l21 150l168 18l-39 223h-504l-101 -223l156 -18l-22 -150h-562l23 150l92 22q41 10 55 41l613 1270h356l262 -1276q4 -25 45 -35l88 -22z" />
    <glyph glyph-name="Atilde" unicode="&#xc3;" horiz-adv-x="1523" 
d="M1103 1599q-50 0 -159 29l-153 41q-20 6 -35 -8l-72 -66l-119 80l74 107q63 96 154 96q66 0 185 -32q118 -32 138 -32t31 13l55 59l125 -80l-57 -84q-47 -68 -82 -96t-85 -27zM975 612l-105 559h-14l-260 -559h379zM1487 0h-629l21 150l168 18l-39 223h-504l-101 -223
l156 -18l-22 -150h-562l23 150l92 22q41 10 55 41l613 1270h356l262 -1276q4 -25 45 -35l88 -22z" />
    <glyph glyph-name="Adieresis" unicode="&#xc4;" horiz-adv-x="1523" 
d="M1186 1884q132 0 133 -132q0 -64 -46 -108q-47 -44 -113 -44t-101 34q-35 36 -35 100t48 107t114 43zM760 1884q132 0 133 -132q0 -64 -47 -108q-46 -44 -112 -44t-101 34q-35 36 -35 100t48 107t114 43zM975 612l-105 559h-14l-260 -559h379zM1487 0h-629l21 150l168 18
l-39 223h-504l-101 -223l156 -18l-22 -150h-562l23 150l92 22q41 10 55 41l613 1270h356l262 -1276q4 -25 45 -35l88 -22z" />
    <glyph glyph-name="Aring" unicode="&#xc5;" horiz-adv-x="1523" 
d="M940 1530q88 0 88 98q0 66 -70 66q-38 0 -64 -28t-26 -71q0 -65 72 -65zM975 612l-105 559h-14l-260 -559h379zM727 1589q1 104 69 170t164 66t151 -49q56 -50 56 -138t-53 -157l262 -1274q4 -25 45 -35l88 -22l-22 -150h-629l21 150l168 18l-39 223h-504l-101 -223
l156 -18l-22 -150h-562l23 150l92 22q41 10 55 41l611 1268q-29 45 -29 108z" />
    <glyph glyph-name="AE" unicode="&#xc6;" horiz-adv-x="2048" 
d="M1092 846l57 416h-100l-258 -416h301zM1772 1262h-322l-57 -416h477l-33 -228h-475l-57 -399h366q29 0 37 23l57 180h220l-60 -422h-1114l20 150l136 16q18 2 24 8t8 27l60 417h-393l-275 -450l156 -18l-21 -150h-551l23 150l88 22q43 10 59 39l680 1098l-149 20l20 154
h1393l-59 -414l-220 10l-6 156q0 27 -32 27z" />
    <glyph glyph-name="Ccedilla" unicode="&#xc7;" horiz-adv-x="1372" 
d="M598 -375q51 0 90 24t39 75q0 78 -125 81l47 175q-268 24 -398 190t-130 444q0 404 222 650t634 245q127 1 252 -31t196 -85l-53 -402l-219 19l-6 190q0 37 -27 45q-68 27 -172 27q-229 0 -365 -165t-137 -470q0 -211 88 -320t241 -109q154 0 222 28q23 12 31 38l59 195
h216l-54 -381q-166 -96 -452 -111l-19 -69q144 -41 144 -169t-90 -196q-90 -67 -200 -67t-143 16l33 141q25 -8 76 -8z" />
    <glyph glyph-name="Egrave" unicode="&#xc8;" horiz-adv-x="1269" 
d="M995 1569l-430 184l133 203l389 -250zM997 1262h-317l-55 -404h471l-33 -227h-471l-55 -412h362q29 0 35 23l57 180h215l-57 -422h-1112l20 150l129 14q23 4 30 11t9 30l150 1071q4 23 -1 31t-26 10l-127 14l21 152h1067l-58 -414l-215 10l-6 156q-2 27 -33 27z" />
    <glyph glyph-name="Eacute" unicode="&#xc9;" horiz-adv-x="1269" 
d="M1100 1745l-461 -174l-66 145l435 240zM997 1262h-317l-55 -404h471l-33 -227h-471l-55 -412h362q29 0 35 23l57 180h215l-57 -422h-1112l20 150l129 14q23 4 30 11t9 30l150 1071q4 23 -1 31t-26 10l-127 14l21 152h1067l-58 -414l-215 10l-6 156q-2 27 -33 27z" />
    <glyph glyph-name="Ecircumflex" unicode="&#xca;" horiz-adv-x="1269" 
d="M1180 1686l-125 -115l-219 166l-265 -166l-100 115l281 229h213zM997 1262h-317l-55 -404h471l-33 -227h-471l-55 -412h362q29 0 35 23l57 180h215l-57 -422h-1112l20 150l129 14q23 4 30 11t9 30l150 1071q4 23 -1 31t-26 10l-127 14l21 152h1067l-58 -414l-215 10
l-6 156q-2 27 -33 27z" />
    <glyph glyph-name="Edieresis" unicode="&#xcb;" horiz-adv-x="1269" 
d="M1064 1884q132 0 132 -132q0 -64 -46 -108t-112 -44t-102 34q-35 36 -35 100t48 107q49 43 115 43zM638 1884q132 0 132 -132q0 -64 -47 -108t-113 -44t-100 34q-35 36 -35 100t48 107q49 43 115 43zM997 1262h-317l-55 -404h471l-33 -227h-471l-55 -412h362q29 0 35 23
l57 180h215l-57 -422h-1112l20 150l129 14q23 4 30 11t9 30l150 1071q4 23 -1 31t-26 10l-127 14l21 152h1067l-58 -414l-215 10l-6 156q-2 27 -33 27z" />
    <glyph glyph-name="Igrave" unicode="&#xcc;" horiz-adv-x="782" 
d="M733 1569l-430 184l133 203l389 -250zM696 0h-673l16 150l149 14q20 2 27 9q6 7 10 32l152 1069q4 23 -2 31t-27 10l-143 14l20 154h676l-22 -154l-156 -16q-23 -2 -28 -8t-9 -31l-149 -1067q-4 -25 0 -32t24 -9l154 -16z" />
    <glyph glyph-name="Iacute" unicode="&#xcd;" horiz-adv-x="782" 
d="M854 1745l-461 -174l-65 145l434 240zM696 0h-673l16 150l149 14q20 2 27 9q6 7 10 32l152 1069q4 23 -2 31t-27 10l-143 14l20 154h676l-22 -154l-156 -16q-23 -2 -28 -8t-9 -31l-149 -1067q-4 -25 0 -32t24 -9l154 -16z" />
    <glyph glyph-name="Icircumflex" unicode="&#xce;" horiz-adv-x="782" 
d="M934 1686l-125 -115l-219 166l-264 -166l-101 115l281 229h213zM696 0h-673l16 150l149 14q20 2 27 9q6 7 10 32l152 1069q4 23 -2 31t-27 10l-143 14l20 154h676l-22 -154l-156 -16q-23 -2 -28 -8t-9 -31l-149 -1067q-4 -25 0 -32t24 -9l154 -16z" />
    <glyph glyph-name="Idieresis" unicode="&#xcf;" horiz-adv-x="782" 
d="M818 1884q132 0 132 -132q0 -64 -46 -108t-112 -44t-102 34q-35 36 -35 100t48 107q49 43 115 43zM392 1884q132 0 132 -132q0 -64 -47 -108t-113 -44t-100 34q-35 36 -35 100q1 64 49 107t114 43zM696 0h-673l16 150l149 14q20 2 27 9q6 7 10 32l152 1069q4 23 -2 31
t-27 10l-143 14l20 154h676l-22 -154l-156 -16q-23 -2 -28 -8t-9 -31l-149 -1067q-4 -25 0 -32t24 -9l154 -16z" />
    <glyph glyph-name="Eth" unicode="&#xd0;" horiz-adv-x="1525" 
d="M664 219q266 0 410 184t145 469q-1 205 -99 297t-303 93h-125l-57 -408h289l-29 -219h-289l-57 -416h115zM668 0h-619l23 154l129 14q20 2 26 9t11 30l59 428h-164l31 219h164l59 422q6 37 -27 41l-127 14l21 152h651q323 0 477 -158t154 -444q0 -395 -219 -638
t-649 -243z" />
    <glyph glyph-name="Ntilde" unicode="&#xd1;" horiz-adv-x="1662" 
d="M1160 1599q-50 0 -159 29l-153 41q-20 6 -35 -8l-72 -66l-118 80l73 107q63 96 154 96q66 0 186 -32t138 -32q20 0 30 13l56 59l124 -80l-57 -84q-47 -68 -82 -96t-85 -27zM1397 0h-328l-491 1075l-121 -868q-4 -25 1 -32t25 -9l133 -16l-18 -150h-559l18 150l129 14
q23 4 30 11t9 30l150 1071q4 25 -1 32t-26 9l-123 14l17 152h497l484 -1077l123 868q4 23 -1 31t-26 10l-125 14l18 154h557l-20 -154l-137 -16q-25 -4 -29 -13q-4 -10 -6 -26z" />
    <glyph glyph-name="Ograve" unicode="&#xd2;" horiz-adv-x="1550" 
d="M1135 1569l-430 184l133 203l389 -250zM451 635q0 -408 317 -408q196 -1 318 147t141 466q0 80 -4 114q-35 303 -301 303q-152 0 -263 -94q-208 -176 -208 -528zM721 -25q-309 0 -455 161q-145 161 -145 450q0 406 218 664t619 259q303 0 450 -163q146 -164 146 -435
q0 -438 -220 -687t-613 -249z" />
    <glyph glyph-name="Oacute" unicode="&#xd3;" horiz-adv-x="1550" 
d="M1239 1745l-461 -174l-65 145l434 240zM451 635q0 -408 317 -408q196 -1 318 147t141 466q0 80 -4 114q-35 303 -301 303q-152 0 -263 -94q-208 -176 -208 -528zM721 -25q-309 0 -455 161q-145 161 -145 450q0 406 218 664t619 259q303 0 450 -163q146 -164 146 -435
q0 -438 -220 -687t-613 -249z" />
    <glyph glyph-name="Ocircumflex" unicode="&#xd4;" horiz-adv-x="1550" 
d="M1319 1686l-125 -115l-219 166l-264 -166l-101 115l281 229h213zM451 635q0 -408 317 -408q196 -1 318 147t141 466q0 80 -4 114q-35 303 -301 303q-152 0 -263 -94q-208 -176 -208 -528zM721 -25q-309 0 -455 161q-145 161 -145 450q0 406 218 664t619 259
q303 0 450 -163q146 -164 146 -435q0 -438 -220 -687t-613 -249z" />
    <glyph glyph-name="Otilde" unicode="&#xd5;" horiz-adv-x="1550" 
d="M1119 1599q-50 0 -158 29l-154 41q-20 6 -35 -8l-72 -66l-118 80l73 107q63 96 154 96q65 0 185 -32t140 -32t29 13l56 59l124 -80l-57 -84q-47 -68 -82 -96t-85 -27zM451 635q0 -408 317 -408q196 -1 318 147t141 466q0 80 -4 114q-35 303 -301 303q-152 0 -263 -94
q-208 -176 -208 -528zM721 -25q-309 0 -455 161q-145 161 -145 450q0 406 218 664t619 259q303 0 450 -163q146 -164 146 -435q0 -438 -220 -687t-613 -249z" />
    <glyph glyph-name="Odieresis" unicode="&#xd6;" horiz-adv-x="1550" 
d="M1203 1884q132 0 132 -132q0 -64 -46 -108q-47 -44 -113 -44t-101 34q-35 36 -35 100t48 107t115 43zM777 1884q132 0 132 -132q0 -64 -47 -108q-46 -44 -112 -44t-101 34q-35 36 -35 100t48 107t115 43zM451 635q0 -408 317 -408q196 -1 318 147t141 466q0 80 -4 114
q-35 303 -301 303q-152 0 -263 -94q-208 -176 -208 -528zM721 -25q-309 0 -455 161q-145 161 -145 450q0 406 218 664t619 259q303 0 450 -163q146 -164 146 -435q0 -438 -220 -687t-613 -249z" />
    <glyph glyph-name="multiply" unicode="&#xd7;" horiz-adv-x="1167" 
d="M1010 846l-222 -193l175 -198l-197 -166l-170 196l-227 -198l-140 170l224 194l-170 197l196 166l166 -195l225 197z" />
    <glyph glyph-name="Oslash" unicode="&#xd8;" horiz-adv-x="1550" 
d="M768 227q196 -1 318 147t141 466q0 80 -6 138t-35 120l-477 -869q18 -2 59 -2zM922 1257q-152 0 -263 -94q-208 -176 -208 -528q0 -170 53 -273l487 889q-31 6 -69 6zM121 586q0 406 218 664t619 259q84 0 166 -16l72 131h281l-127 -229q205 -154 204 -484
q0 -438 -220 -687t-613 -249q-78 0 -164 15l-84 -152h-278l135 242q-209 150 -209 506z" />
    <glyph glyph-name="Ugrave" unicode="&#xd9;" horiz-adv-x="1585" 
d="M1141 1569l-430 184l133 203l389 -250zM248 412q0 51 10 127l100 737q6 39 -24 41l-125 14l20 152h635l-20 -152l-137 -16q-23 -2 -28 -8t-9 -31l-97 -686q-12 -80 -12 -144q0 -114 55 -166t198 -52q144 0 220 82q76 83 103 278l96 688q4 23 -1 31t-26 10l-125 14l21 152
h594l-21 -152l-139 -16q-23 -2 -28 -9t-7 -30l-104 -746q-41 -290 -196 -422t-424 -132t-399 107q-130 108 -130 329z" />
    <glyph glyph-name="Uacute" unicode="&#xda;" horiz-adv-x="1585" 
d="M1274 1745l-461 -174l-65 145l434 240zM248 412q0 51 10 127l100 737q6 39 -24 41l-125 14l20 152h635l-20 -152l-137 -16q-23 -2 -28 -8t-9 -31l-97 -686q-12 -80 -12 -144q0 -114 55 -166t198 -52q144 0 220 82q76 83 103 278l96 688q4 23 -1 31t-26 10l-125 14l21 152
h594l-21 -152l-139 -16q-23 -2 -28 -9t-7 -30l-104 -746q-41 -290 -196 -422t-424 -132t-399 107q-130 108 -130 329z" />
    <glyph glyph-name="Ucircumflex" unicode="&#xdb;" horiz-adv-x="1585" 
d="M1354 1686l-125 -115l-219 166l-265 -166l-100 115l281 229h213zM248 412q0 51 10 127l100 737q6 39 -24 41l-125 14l20 152h635l-20 -152l-137 -16q-23 -2 -28 -8t-9 -31l-97 -686q-12 -80 -12 -144q0 -114 55 -166t198 -52q144 0 220 82q76 83 103 278l96 688
q4 23 -1 31t-26 10l-125 14l21 152h594l-21 -152l-139 -16q-23 -2 -28 -9t-7 -30l-104 -746q-41 -290 -196 -422t-424 -132t-399 107q-130 108 -130 329z" />
    <glyph glyph-name="Udieresis" unicode="&#xdc;" horiz-adv-x="1585" 
d="M1238 1884q132 0 132 -132q0 -64 -46 -108t-112 -44t-102 34q-35 36 -35 100t48 107q49 43 115 43zM812 1884q132 0 132 -132q0 -64 -47 -108t-113 -44t-100 34q-35 36 -35 100t48 107q49 43 115 43zM248 412q0 51 10 127l100 737q6 39 -24 41l-125 14l20 152h635
l-20 -152l-137 -16q-23 -2 -28 -8t-9 -31l-97 -686q-12 -80 -12 -144q0 -114 55 -166t198 -52q144 0 220 82q76 83 103 278l96 688q4 23 -1 31t-26 10l-125 14l21 152h594l-21 -152l-139 -16q-23 -2 -28 -9t-7 -30l-104 -746q-41 -290 -196 -422t-424 -132t-399 107
q-130 108 -130 329z" />
    <glyph glyph-name="Yacute" unicode="&#xdd;" horiz-adv-x="1357" 
d="M1176 1745l-461 -174l-66 145l434 240zM1057 0h-787l19 152l205 14q18 2 24 9t10 32l50 346l-299 723q-8 23 -46 35l-86 22l23 150h618l-22 -150l-160 -18l178 -492h13l311 492l-152 18l23 150h534l-22 -150l-86 -22q-43 -14 -57 -41l-459 -713l-49 -350q-4 -23 0 -30
t26 -9l211 -16z" />
    <glyph glyph-name="Thorn" unicode="&#xde;" horiz-adv-x="1310" 
d="M676 543q229 0 294 134q28 58 27 146q0 176 -233 176h-121l-63 -456h96zM872 1223q231 1 340 -101t109 -280q0 -256 -165 -386t-460 -130h-147l-14 -117q-4 -25 0 -32t24 -9l287 -16l-23 -152h-786l20 152l129 14q23 4 30 11t9 30l150 1067q4 23 -2 31t-27 10l-123 14
l19 154h639l-21 -154l-147 -16q-31 -4 -33 -33l-8 -57h200z" />
    <glyph glyph-name="germandbls" unicode="&#xdf;" horiz-adv-x="1404" 
d="M1309 1268q0 -145 -150 -287q-31 -31 -49 -47q-66 -59 -68 -105q-2 -47 24 -72t47 -41q20 -16 92 -69q73 -53 116 -120t43 -167q0 -174 -119 -279t-323 -106q-122 0 -228 25t-137 47l39 283l209 -13l6 -118q4 -37 33 -43q28 -8 90 -8t104 38q42 40 41 100q0 60 -36 100
t-96 78t-83 54q-24 16 -60 51q-65 63 -67 170q1 66 17 99t24 49t30 41t34 40t61 64q96 100 96 182q0 56 -45 94q-46 38 -144 38t-159 -60t-82 -201l-215 -1519h-303l223 1558q36 264 210 363q145 82 366 84q125 0 218 -30t143 -77q98 -92 98 -196z" />
    <glyph glyph-name="agrave" unicode="&#xe0;" horiz-adv-x="1239" 
d="M967 1251l-131 -102l-324 299l190 160zM672 854q-84 0 -136 -47q-88 -81 -120 -263q-12 -71 -13 -134q0 -178 117 -179q104 0 266 162l54 385q-84 76 -168 76zM88 385q0 254 113 466q57 109 161 173t255 64t268 -117l39 96h262q-41 -201 -51 -268l-82 -594q-4 -23 1 -30
t25 -9l97 -14l-23 -152h-395l24 166l-10 2q-100 -98 -185 -145t-188 -48q-311 0 -311 410z" />
    <glyph glyph-name="aacute" unicode="&#xe1;" horiz-adv-x="1239" 
d="M997 1427l-381 -278l-112 119l336 334zM672 854q-84 0 -136 -47q-88 -81 -120 -263q-12 -71 -13 -134q0 -178 117 -179q104 0 266 162l54 385q-84 76 -168 76zM88 385q0 254 113 466q57 109 161 173t255 64t268 -117l39 96h262q-41 -201 -51 -268l-82 -594q-4 -23 1 -30
t25 -9l97 -14l-23 -152h-395l24 166l-10 2q-100 -98 -185 -145t-188 -48q-311 0 -311 410z" />
    <glyph glyph-name="acircumflex" unicode="&#xe2;" horiz-adv-x="1239" 
d="M1079 1257l-133 -106l-207 190l-264 -190l-110 106l286 265h213zM672 854q-84 0 -136 -47q-88 -81 -120 -263q-12 -71 -13 -134q0 -178 117 -179q104 0 266 162l54 385q-84 76 -168 76zM88 385q0 254 113 466q57 109 161 173t255 64t268 -117l39 96h262
q-41 -201 -51 -268l-82 -594q-4 -23 1 -30t25 -9l97 -14l-23 -152h-395l24 166l-10 2q-100 -98 -185 -145t-188 -48q-311 0 -311 410z" />
    <glyph glyph-name="atilde" unicode="&#xe3;" horiz-adv-x="1239" 
d="M928 1194q-47 0 -112 20q-64 20 -104 30q-40 12 -68 20t-42 10t-35 -14l-71 -66l-111 76l76 104q72 102 149 103q45 0 163 -36t157 -42q14 0 28 12l66 66l123 -76l-60 -84q-45 -67 -79 -95t-80 -28zM672 854q-84 0 -136 -47q-88 -81 -120 -263q-12 -71 -13 -134
q0 -178 117 -179q104 0 266 162l54 385q-84 76 -168 76zM88 385q0 254 113 466q57 109 161 173t255 64t268 -117l39 96h262q-41 -201 -51 -268l-82 -594q-4 -23 1 -30t25 -9l97 -14l-23 -152h-395l24 166l-10 2q-100 -98 -185 -145t-188 -48q-311 0 -311 410z" />
    <glyph glyph-name="adieresis" unicode="&#xe4;" horiz-adv-x="1239" 
d="M970 1505q132 -1 132 -133q0 -64 -46 -108t-112 -43t-102 35q-35 34 -35 99t48 107q49 42 115 43zM544 1505q132 -1 132 -133q0 -64 -47 -108t-113 -43t-100 35q-35 34 -35 99t48 107q49 42 115 43zM672 854q-84 0 -136 -47q-88 -81 -120 -263q-12 -71 -13 -134
q0 -178 117 -179q104 0 266 162l54 385q-84 76 -168 76zM88 385q0 254 113 466q57 109 161 173t255 64t268 -117l39 96h262q-41 -201 -51 -268l-82 -594q-4 -23 1 -30t25 -9l97 -14l-23 -152h-395l24 166l-10 2q-100 -98 -185 -145t-188 -48q-311 0 -311 410z" />
    <glyph glyph-name="aring" unicode="&#xe5;" horiz-adv-x="1239" 
d="M754 1294q80 0 80 92q0 59 -62 60q-82 0 -82 -92q1 -60 64 -60zM561 1357q1 89 63 149t149 59q87 0 137 -44t50 -132q0 -89 -60 -151t-150 -62t-139 46q-50 46 -50 135zM672 854q-84 0 -136 -47q-88 -81 -120 -263q-12 -71 -13 -134q0 -178 117 -179q104 0 266 162
l54 385q-84 76 -168 76zM88 385q0 254 113 466q57 109 161 173t255 64t268 -117l39 96h262q-41 -201 -51 -268l-82 -594q-4 -23 1 -30t25 -9l97 -14l-23 -152h-395l24 166l-10 2q-100 -98 -185 -145t-188 -48q-311 0 -311 410z" />
    <glyph glyph-name="ae" unicode="&#xe6;" horiz-adv-x="1712" 
d="M1417 784q0 82 -92 82t-159 -72t-87 -190q92 12 177 39q161 53 161 141zM666 854q-197 0 -250 -310q-12 -71 -13 -134q0 -178 117 -179q92 0 234 129q-2 31 -2 91q6 188 84 327q-90 76 -170 76zM88 385q0 254 113 466q57 109 161 173t242 63q203 0 357 -155
q176 156 417 155q150 -1 234 -71t84 -197q0 -354 -629 -413q8 -96 51 -148t159 -53q116 0 290 74l47 -201q-221 -102 -424 -103q-287 0 -387 201q-117 -106 -210 -153t-194 -48q-311 0 -311 410z" />
    <glyph glyph-name="ccedilla" unicode="&#xe7;" horiz-adv-x="1028" 
d="M393 -375q51 0 90 24t39 75q0 78 -125 81l47 177q-182 20 -271 137t-89 303q0 326 175 496t450 169q221 0 342 -86l-45 -321l-209 10l-6 139q0 23 -15 29q-35 14 -100 14q-115 0 -195 -102t-80 -315q0 -250 203 -250q115 0 270 61l52 -190q-141 -80 -334 -96l-19 -72
q143 -41 143 -169t-89 -196q-89 -67 -199 -67t-143 16l32 141q25 -8 76 -8z" />
    <glyph glyph-name="egrave" unicode="&#xe8;" horiz-adv-x="1036" 
d="M924 1251l-131 -102l-324 299l190 160zM750 788q0 78 -92 78t-158 -70q-65 -70 -88 -192q338 47 338 184zM84 412q0 313 174 494t434 181q166 -1 251 -71t85 -186q0 -224 -197 -318q-168 -80 -432 -106q12 -201 203 -201q121 0 297 74l45 -201q-221 -102 -436 -102
t-320 117q-104 118 -104 319z" />
    <glyph glyph-name="eacute" unicode="&#xe9;" horiz-adv-x="1036" 
d="M954 1427l-381 -278l-112 119l336 334zM750 788q0 78 -92 78t-158 -70q-65 -70 -88 -192q338 47 338 184zM84 412q0 313 174 494t434 181q166 -1 251 -71t85 -186q0 -224 -197 -318q-168 -80 -432 -106q12 -201 203 -201q121 0 297 74l45 -201q-221 -102 -436 -102
t-320 117q-104 118 -104 319z" />
    <glyph glyph-name="ecircumflex" unicode="&#xea;" horiz-adv-x="1036" 
d="M1036 1257l-133 -106l-207 190l-264 -190l-110 106l286 265h213zM750 788q0 78 -92 78t-158 -70q-65 -70 -88 -192q338 47 338 184zM84 412q0 313 174 494t434 181q166 -1 251 -71t85 -186q0 -224 -197 -318q-168 -80 -432 -106q12 -201 203 -201q121 0 297 74l45 -201
q-221 -102 -436 -102t-320 117q-104 118 -104 319z" />
    <glyph glyph-name="edieresis" unicode="&#xeb;" horiz-adv-x="1036" 
d="M926 1505q132 -1 133 -133q0 -64 -46 -108q-47 -44 -113 -43t-101 35t-35 99t48 107t114 43zM500 1505q132 -1 133 -133q0 -64 -47 -108q-46 -44 -112 -43t-101 35t-35 99t48 107t114 43zM750 788q0 78 -92 78t-158 -70q-65 -70 -88 -192q338 47 338 184zM84 412
q0 313 174 494t434 181q166 -1 251 -71t85 -186q0 -224 -197 -318q-168 -80 -432 -106q12 -201 203 -201q121 0 297 74l45 -201q-221 -102 -436 -102t-320 117q-104 118 -104 319z" />
    <glyph glyph-name="igrave" unicode="&#xec;" horiz-adv-x="651" 
d="M573 0h-442l-4 10l49 277l76 547q6 35 -21 43l-100 34l21 156h436l-121 -860q-4 -25 1 -32t28 -9l98 -14zM623 1247l-131 -102l-324 299l190 160z" />
    <glyph glyph-name="iacute" unicode="&#xed;" horiz-adv-x="651" 
d="M573 0h-442l-4 10l49 277l76 547q6 35 -21 43l-100 34l21 156h436l-121 -860q-4 -25 1 -32t28 -9l98 -14zM653 1421l-381 -278l-112 119l336 333z" />
    <glyph glyph-name="icircumflex" unicode="&#xee;" horiz-adv-x="651" 
d="M573 0h-442l-4 10l49 277l76 547q6 35 -21 43l-100 34l21 156h436l-121 -860q-4 -25 1 -32t28 -9l98 -14zM729 1266l-133 -107l-186 191l-244 -191l-111 107l267 264h213z" />
    <glyph glyph-name="idieresis" unicode="&#xef;" horiz-adv-x="651" 
d="M573 0h-442l-4 10l49 277l76 547q6 35 -21 43l-100 34l21 156h436l-121 -860q-4 -25 1 -32t28 -9l98 -14zM611 1479q132 -1 132 -133q0 -64 -46 -108t-112 -44t-102 35q-35 35 -35 99t49 108q48 43 114 43zM226 1479q132 -1 132 -133q0 -64 -47 -108t-112 -44t-101 35
q-35 35 -35 99q1 64 49 108q48 43 114 43z" />
    <glyph glyph-name="eth" unicode="&#xf0;" horiz-adv-x="1202" 
d="M408 412q0 -221 170 -222q269 1 296 560q-74 70 -198 69q-268 0 -268 -407zM1194 809q0 -337 -137 -572q-72 -122 -204 -192t-312 -70q-225 0 -342 120t-117 327q0 258 145 436t404 178q137 0 272 -80q-27 170 -128 268t-316 156l114 217q180 -35 322 -131l229 138
l129 -226l-180 -102q121 -203 121 -467z" />
    <glyph glyph-name="ntilde" unicode="&#xf1;" horiz-adv-x="1269" 
d="M938 1194q-47 0 -112 20q-64 20 -104 30q-40 12 -68 20t-42 10t-34 -14l-72 -66l-111 76l76 104q72 102 150 103q43 0 162 -36t157 -42q14 0 29 12l65 66l123 -76l-59 -84q-45 -67 -79 -95t-81 -28zM801 823q-98 0 -266 -147l-64 -469q-4 -25 0 -32t27 -9l102 -14
l-20 -152h-562l21 154l90 12q20 4 28 11q7 7 9 30l86 624q6 35 -19 43l-100 37l23 156h405l-22 -168l6 -2q74 63 119 96q46 33 118 64t148 30q233 0 241 -243q0 -61 -8 -113l-73 -524q-4 -25 0 -32t24 -9l103 -14l-21 -152h-442l-4 6l45 250l59 426q27 141 -53 141z" />
    <glyph glyph-name="ograve" unicode="&#xf2;" horiz-adv-x="1183" 
d="M954 1251l-131 -102l-323 299l190 160zM575 190q117 0 191 111t74 338t-170 227q-117 0 -194 -108t-77 -338t176 -230zM551 -25q-233 0 -350 118t-117 323q0 303 164 487t457 184q241 -1 349 -119t107 -315q-1 -309 -157 -493t-453 -185z" />
    <glyph glyph-name="oacute" unicode="&#xf3;" horiz-adv-x="1183" 
d="M1001 1427l-380 -278l-113 119l336 334zM575 190q117 0 191 111t74 338t-170 227q-117 0 -194 -108t-77 -338t176 -230zM551 -25q-233 0 -350 118t-117 323q0 303 164 487t457 184q241 -1 349 -119t107 -315q-1 -309 -157 -493t-453 -185z" />
    <glyph glyph-name="ocircumflex" unicode="&#xf4;" horiz-adv-x="1183" 
d="M1067 1257l-133 -106l-207 190l-264 -190l-111 106l287 265h213zM575 190q117 0 191 111t74 338t-170 227q-117 0 -194 -108t-77 -338t176 -230zM551 -25q-233 0 -350 118t-117 323q0 303 164 487t457 184q241 -1 349 -119t107 -315q-1 -309 -157 -493t-453 -185z" />
    <glyph glyph-name="otilde" unicode="&#xf5;" horiz-adv-x="1183" 
d="M883 1194q-47 0 -112 20t-105 30q-40 12 -67 20q-28 8 -42 10t-35 -14l-71 -66l-111 76l76 104q72 102 149 103q45 0 163 -36t157 -42q14 0 28 12l66 66l123 -76l-60 -84q-44 -67 -78 -95t-81 -28zM575 190q117 0 191 111t74 338t-170 227q-117 0 -194 -108t-77 -338
t176 -230zM551 -25q-233 0 -350 118t-117 323q0 303 164 487t457 184q241 -1 349 -119t107 -315q-1 -309 -157 -493t-453 -185z" />
    <glyph glyph-name="odieresis" unicode="&#xf6;" horiz-adv-x="1183" 
d="M958 1505q132 -1 132 -133q0 -64 -46 -108t-113 -43q-139 0 -137 134q0 65 49 107t115 43zM532 1505q132 -1 132 -133q0 -64 -48 -108t-112 -43q-65 0 -101 34q-35 35 -35 100t49 107t115 43zM575 190q117 0 191 111t74 338t-170 227q-117 0 -194 -108t-77 -338t176 -230
zM551 -25q-233 0 -350 118t-117 323q0 303 164 487t457 184q241 -1 349 -119t107 -315q-1 -309 -157 -493t-453 -185z" />
    <glyph glyph-name="divide" unicode="&#xf7;" horiz-adv-x="1167" 
d="M700 1145q142 1 142 -137q0 -70 -46 -115t-137 -45q-143 0 -143 123q0 78 48 126t136 48zM1016 539h-793l35 237h793zM606 469q142 -1 142 -139q0 -68 -48 -114t-135 -46q-143 0 -143 123q0 78 48 127t136 49z" />
    <glyph glyph-name="oslash" unicode="&#xf8;" horiz-adv-x="1183" 
d="M575 190q117 0 191 111t74 348q0 49 -9 80l-305 -534q29 -5 49 -5zM399 416q0 -55 9 -90l309 536q-29 4 -47 4q-117 0 -194 -107t-77 -343zM84 416q0 303 164 487t457 184q39 0 108 -8l80 138h250l-127 -218q145 -111 145 -346q-1 -309 -157 -493t-453 -185
q-59 0 -121 11l-88 -154h-252l137 238q-143 113 -143 346z" />
    <glyph glyph-name="ugrave" unicode="&#xf9;" horiz-adv-x="1275" 
d="M936 1251l-131 -102l-324 299l191 160zM168 231q0 61 8 117l68 496q4 27 0 34t-27 9l-80 14l25 166h399l14 -14l-90 -652q-8 -71 -8 -99q0 -62 66 -62q94 0 258 145l63 463q4 25 0 31t-26 10l-66 10l27 168h387l14 -16l-121 -842q-6 -39 23 -43l102 -14l-20 -152h-406
l21 164l-6 2q-6 -4 -34 -29t-39 -33t-40 -30q-122 -95 -283 -97q-229 -4 -229 254z" />
    <glyph glyph-name="uacute" unicode="&#xfa;" horiz-adv-x="1275" 
d="M1010 1427l-381 -278l-113 119l336 334zM168 231q0 61 8 117l68 496q4 27 0 34t-27 9l-80 14l25 166h399l14 -14l-90 -652q-8 -71 -8 -99q0 -62 66 -62q94 0 258 145l63 463q4 25 0 31t-26 10l-66 10l27 168h387l14 -16l-121 -842q-6 -39 23 -43l102 -14l-20 -152h-406
l21 164l-6 2q-6 -4 -34 -29t-39 -33t-40 -30q-122 -95 -283 -97q-229 -4 -229 254z" />
    <glyph glyph-name="ucircumflex" unicode="&#xfb;" horiz-adv-x="1275" 
d="M1090 1257l-134 -106l-206 190l-265 -190l-110 106l287 265h212zM168 231q0 61 8 117l68 496q4 27 0 34t-27 9l-80 14l25 166h399l14 -14l-90 -652q-8 -71 -8 -99q0 -62 66 -62q94 0 258 145l63 463q4 25 0 31t-26 10l-66 10l27 168h387l14 -16l-121 -842q-6 -39 23 -43
l102 -14l-20 -152h-406l21 164l-6 2q-6 -4 -34 -29t-39 -33t-40 -30q-122 -95 -283 -97q-229 -4 -229 254z" />
    <glyph glyph-name="udieresis" unicode="&#xfc;" horiz-adv-x="1275" 
d="M972 1505q132 -1 132 -133q0 -64 -46 -108t-112 -43t-102 35q-35 34 -35 99t48 107q49 42 115 43zM546 1505q132 -1 132 -133q0 -64 -47 -108t-113 -43t-100 35q-35 34 -35 99t48 107q49 42 115 43zM168 231q0 61 8 117l68 496q4 27 0 34t-27 9l-80 14l25 166h399l14 -14
l-90 -652q-8 -71 -8 -99q0 -62 66 -62q94 0 258 145l63 463q4 25 0 31t-26 10l-66 10l27 168h387l14 -16l-121 -842q-6 -39 23 -43l102 -14l-20 -152h-406l21 164l-6 2q-6 -4 -34 -29t-39 -33t-40 -30q-122 -95 -283 -97q-229 -4 -229 254z" />
    <glyph glyph-name="yacute" unicode="&#xfd;" horiz-adv-x="1163" 
d="M963 1427l-381 -278l-113 119l336 334zM190 -457q-100 0 -183 34t-120 69l105 174q98 -59 196 -59t183 143l57 102l-229 856q-8 27 -37 35l-80 18l24 152h361l20 -23l148 -692h10l260 545l-125 18l23 152h379l28 -63l-594 -1170q-82 -154 -175 -222t-251 -69z" />
    <glyph glyph-name="thorn" unicode="&#xfe;" horiz-adv-x="1228" 
d="M647 213q119 0 177 127t59 287q0 201 -107 200q-88 1 -260 -153l-55 -381q94 -80 186 -80zM909 1087q295 0 295 -409q0 -324 -130 -513t-365 -190q-166 0 -269 103h-10l-45 -305q-2 -19 4 -25t25 -8l207 -21l-23 -153h-549l-4 8l61 352l197 1387q6 31 -20 43l-99 35
l21 155h426l-92 -641l6 -4q197 186 364 186z" />
    <glyph glyph-name="ydieresis" unicode="&#xff;" horiz-adv-x="1163" 
d="M930 1505q132 -1 133 -133q0 -64 -46 -108q-47 -44 -113 -43t-101 35t-35 99t48 107t114 43zM504 1505q132 -1 133 -133q0 -64 -47 -108q-46 -44 -112 -43t-101 35t-35 99t48 107t114 43zM190 -457q-100 0 -183 34t-120 69l105 174q98 -59 196 -59t183 143l57 102
l-229 856q-8 27 -37 35l-80 18l24 152h361l20 -23l148 -692h10l260 545l-125 18l23 152h379l28 -63l-594 -1170q-82 -154 -175 -222t-251 -69z" />
    <glyph glyph-name="Amacron" unicode="&#x100;" horiz-adv-x="1523" 
d="M1280 1608h-649l26 204h650zM975 612l-105 559h-14l-260 -559h379zM1487 0h-629l21 150l168 18l-39 223h-504l-101 -223l156 -18l-22 -150h-562l23 150l92 22q41 10 55 41l613 1270h356l262 -1276q4 -25 45 -35l88 -22z" />
    <glyph glyph-name="amacron" unicode="&#x101;" horiz-adv-x="1239" 
d="M1069 1227h-649l29 205h649zM672 854q-84 0 -136 -47q-88 -81 -120 -263q-12 -71 -13 -134q0 -178 117 -179q104 0 266 162l54 385q-84 76 -168 76zM88 385q0 254 113 466q57 109 161 173t255 64t268 -117l39 96h262q-41 -201 -51 -268l-82 -594q-4 -23 1 -30t25 -9
l97 -14l-23 -152h-395l24 166l-10 2q-100 -98 -185 -145t-188 -48q-311 0 -311 410z" />
    <glyph glyph-name="Abreve" unicode="&#x102;" horiz-adv-x="1523" 
d="M944 1602q-277 0 -305 268l160 55q31 -139 166 -139t209 141l151 -57q-104 -268 -381 -268zM975 612l-105 559h-14l-260 -559h379zM1487 0h-629l21 150l168 18l-39 223h-504l-101 -223l156 -18l-22 -150h-562l23 150l92 22q41 10 55 41l613 1270h356l262 -1276
q4 -25 45 -35l88 -22z" />
    <glyph glyph-name="abreve" unicode="&#x103;" horiz-adv-x="1239" 
d="M724 1171q-284 0 -312 281l159 57q33 -154 173 -154t221 154l151 -57q-108 -281 -392 -281zM672 854q-84 0 -136 -47q-88 -81 -120 -263q-12 -71 -13 -134q0 -178 117 -179q104 0 266 162l54 385q-84 76 -168 76zM88 385q0 254 113 466q57 109 161 173t255 64t268 -117
l39 96h262q-41 -201 -51 -268l-82 -594q-4 -23 1 -30t25 -9l97 -14l-23 -152h-395l24 166l-10 2q-100 -98 -185 -145t-188 -48q-311 0 -311 410z" />
    <glyph glyph-name="Aogonek" unicode="&#x104;" horiz-adv-x="1523" 
d="M975 612l-105 559h-14l-260 -559h379zM1075 -479q-195 0 -194 151q0 166 233 328h-256l21 150l168 18l-39 223h-504l-101 -223l156 -18l-22 -150h-562l23 150l92 22q41 10 55 41l613 1270h356l262 -1276q4 -25 45 -35l88 -22l-22 -150h-170q-188 -145 -189 -244
q0 -48 47 -48t115 20l35 -152q-125 -55 -250 -55z" />
    <glyph glyph-name="aogonek" unicode="&#x105;" horiz-adv-x="1239" 
d="M672 854q-84 0 -136 -47q-88 -81 -120 -263q-12 -71 -13 -134q0 -178 117 -179q104 0 266 162l54 385q-84 76 -168 76zM838 -479q-195 0 -195 151q0 166 236 328h-121l24 166l-10 2q-100 -98 -185 -145t-188 -48q-311 0 -311 410q0 254 113 466q57 109 161 173t255 64
t268 -117l39 96h262q-41 -201 -51 -268l-82 -594q-4 -23 1 -30t25 -9l97 -14l-23 -152q-96 -37 -179 -110t-83 -128q0 -54 47 -54t115 20l34 -152q-125 -55 -249 -55z" />
    <glyph glyph-name="Cacute" unicode="&#x106;" horiz-adv-x="1372" 
d="M1241 1745l-461 -174l-65 145l434 240zM738 -25q-316 0 -467 170t-150 469q0 404 222 650t634 245q127 1 252 -31t196 -85l-53 -402l-219 19l-6 190q0 37 -27 45q-68 27 -172 27q-229 0 -365 -165t-137 -470q0 -211 88 -320t241 -109q154 0 222 28q23 12 31 38l59 195
h216l-54 -381q-195 -113 -511 -113z" />
    <glyph glyph-name="cacute" unicode="&#x107;" horiz-adv-x="1028" 
d="M981 1427l-381 -278l-113 119l336 334zM84 422q0 326 175 496t450 169q221 0 342 -86l-45 -321l-209 10l-6 139q0 23 -15 29q-35 14 -100 14q-115 0 -195 -102t-80 -315q0 -250 203 -250q114 0 270 61l52 -190q-176 -100 -398 -100t-334 119q-110 120 -110 327z" />
    <glyph glyph-name="Ccircumflex" unicode="&#x108;" horiz-adv-x="1372" 
d="M1321 1686l-125 -115l-219 166l-264 -166l-101 115l281 229h213zM738 -25q-316 0 -467 170t-150 469q0 404 222 650t634 245q127 1 252 -31t196 -85l-53 -402l-219 19l-6 190q0 37 -27 45q-68 27 -172 27q-229 0 -365 -165t-137 -470q0 -211 88 -320t241 -109
q154 0 222 28q23 12 31 38l59 195h216l-54 -381q-195 -113 -511 -113z" />
    <glyph glyph-name="ccircumflex" unicode="&#x109;" horiz-adv-x="1028" 
d="M1063 1257l-133 -106l-207 190l-264 -190l-111 106l287 265h213zM84 422q0 326 175 496t450 169q221 0 342 -86l-45 -321l-209 10l-6 139q0 23 -15 29q-35 14 -100 14q-115 0 -195 -102t-80 -315q0 -250 203 -250q114 0 270 61l52 -190q-176 -100 -398 -100t-334 119
q-110 120 -110 327z" />
    <glyph glyph-name="Cdotaccent" unicode="&#x10a;" horiz-adv-x="1372" 
d="M1020 1964q164 0 164 -163q0 -85 -58 -143t-146 -58q-89 0 -132 40q-43 41 -43 126q0 86 57 142t158 56zM738 -25q-316 0 -467 170t-150 469q0 404 222 650t634 245q127 1 252 -31t196 -85l-53 -402l-219 19l-6 190q0 37 -27 45q-68 27 -172 27q-229 0 -365 -165
t-137 -470q0 -211 88 -320t241 -109q154 0 222 28q23 12 31 38l59 195h216l-54 -381q-195 -113 -511 -113z" />
    <glyph glyph-name="cdotaccent" unicode="&#x10b;" horiz-adv-x="1028" 
d="M772 1599q160 0 160 -163q0 -86 -58 -144t-144 -57q-87 0 -128 41t-41 126t55 141t156 56zM84 422q0 326 175 496t450 169q221 0 342 -86l-45 -321l-209 10l-6 139q0 23 -15 29q-35 14 -100 14q-115 0 -195 -102t-80 -315q0 -250 203 -250q114 0 270 61l52 -190
q-176 -100 -398 -100t-334 119q-110 120 -110 327z" />
    <glyph glyph-name="Ccaron" unicode="&#x10c;" horiz-adv-x="1372" 
d="M1343 1823l-278 -228h-213l-217 228l123 116l219 -165l266 165zM738 -25q-316 0 -467 170t-150 469q0 404 222 650t634 245q127 1 252 -31t196 -85l-53 -402l-219 19l-6 190q0 37 -27 45q-68 27 -172 27q-229 0 -365 -165t-137 -470q0 -211 88 -320t241 -109
q154 0 222 28q23 12 31 38l59 195h216l-54 -381q-195 -113 -511 -113z" />
    <glyph glyph-name="ccaron" unicode="&#x10d;" horiz-adv-x="1028" 
d="M1108 1456l-289 -264h-213l-213 264l131 107l209 -191l262 191zM84 422q0 326 175 496t450 169q221 0 342 -86l-45 -321l-209 10l-6 139q0 23 -15 29q-35 14 -100 14q-115 0 -195 -102t-80 -315q0 -250 203 -250q114 0 270 61l52 -190q-176 -100 -398 -100t-334 119
q-110 120 -110 327z" />
    <glyph glyph-name="Dcaron" unicode="&#x10e;" horiz-adv-x="1513" 
d="M1237 1823l-279 -228h-213l-217 228l123 116l219 -165l267 165zM651 219q266 0 411 184q144 184 144 469q0 205 -98 297t-303 93h-125l-143 -1043h114zM655 0h-618l22 154l129 14q20 2 27 9q6 7 10 30l150 1069q6 37 -27 41l-127 14l21 152h651q323 0 477 -158t154 -444
q0 -395 -220 -638t-649 -243z" />
    <glyph glyph-name="dcaron" unicode="&#x10f;" horiz-adv-x="1458" 
d="M1581 1474q-1 -52 -29 -121t-147 -266l-141 60q78 172 77 274q0 35 -18 97l201 69q57 -61 57 -113zM676 854q-84 0 -138 -46q-90 -76 -122 -267q-12 -72 -13 -144q0 -166 117 -166q106 0 266 164l56 389q-82 70 -166 70zM88 381q0 248 111 462q57 109 161 177t251 68
t263 -89l41 316q4 35 -20 41l-102 35l24 155h422l-186 -1341q-4 -23 1 -30t25 -9l97 -14l-21 -152h-397l24 164l-10 4q-100 -98 -184 -145t-187 -48q-313 0 -313 406z" />
    <glyph glyph-name="Dcroat" unicode="&#x110;" horiz-adv-x="1525" 
d="M664 219q266 0 410 184t145 469q-1 205 -99 297t-303 93h-125l-57 -408h289l-29 -219h-289l-57 -416h115zM668 0h-619l23 154l129 14q20 2 26 9t11 30l59 428h-164l31 219h164l59 422q6 37 -27 41l-127 14l21 152h651q323 0 477 -158t154 -444q0 -395 -219 -638
t-649 -243z" />
    <glyph glyph-name="dcroat" unicode="&#x111;" horiz-adv-x="1245" 
d="M520 231q106 0 266 164l45 320q-82 69 -176 69t-153 -64q-58 -64 -78 -146q-20 -81 -21 -177q0 -166 117 -166zM604 1018q144 0 260 -88l23 168h-314l25 172h311l6 45q6 33 -20 41l-102 35l24 155h422l-39 -276h148l-25 -172h-147l-123 -893q-4 -23 1 -30t25 -9l97 -14
l-21 -152h-397l24 164l-10 4q-100 -98 -184 -145t-187 -48q-153 -1 -233 99t-80 321t115 413q57 94 157 152t244 58z" />
    <glyph glyph-name="Emacron" unicode="&#x112;" horiz-adv-x="1269" 
d="M1157 1608h-649l27 204h649zM997 1262h-317l-55 -404h471l-33 -227h-471l-55 -412h362q29 0 35 23l57 180h215l-57 -422h-1112l20 150l129 14q23 4 30 11t9 30l150 1071q4 23 -1 31t-26 10l-127 14l21 152h1067l-58 -414l-215 10l-6 156q-2 27 -33 27z" />
    <glyph glyph-name="emacron" unicode="&#x113;" horiz-adv-x="1036" 
d="M1026 1227h-649l29 205h649zM750 788q0 78 -92 78t-158 -70q-65 -70 -88 -192q338 47 338 184zM84 412q0 313 174 494t434 181q166 -1 251 -71t85 -186q0 -224 -197 -318q-168 -80 -432 -106q12 -201 203 -201q121 0 297 74l45 -201q-221 -102 -436 -102t-320 117
q-104 118 -104 319z" />
    <glyph glyph-name="Ebreve" unicode="&#x114;" horiz-adv-x="1269" 
d="M821 1602q-277 0 -305 268l160 55q31 -139 166 -139t209 141l151 -57q-104 -268 -381 -268zM997 1262h-317l-55 -404h471l-33 -227h-471l-55 -412h362q29 0 35 23l57 180h215l-57 -422h-1112l20 150l129 14q23 4 30 11t9 30l150 1071q4 23 -1 31t-26 10l-127 14l21 152
h1067l-58 -414l-215 10l-6 156q-2 27 -33 27z" />
    <glyph glyph-name="ebreve" unicode="&#x115;" horiz-adv-x="1036" 
d="M680 1171q-284 0 -311 281l159 57q32 -154 172 -154t222 154l151 -57q-109 -281 -393 -281zM750 788q0 78 -92 78t-158 -70q-65 -70 -88 -192q338 47 338 184zM84 412q0 313 174 494t434 181q166 -1 251 -71t85 -186q0 -224 -197 -318q-168 -80 -432 -106
q12 -201 203 -201q121 0 297 74l45 -201q-221 -102 -436 -102t-320 117q-104 118 -104 319z" />
    <glyph glyph-name="Edotaccent" unicode="&#x116;" horiz-adv-x="1269" 
d="M879 1964q163 0 163 -163q0 -85 -58 -143t-146 -58t-132 40q-42 41 -42 126q0 86 57 142t158 56zM997 1262h-317l-55 -404h471l-33 -227h-471l-55 -412h362q29 0 35 23l57 180h215l-57 -422h-1112l20 150l129 14q23 4 30 11t9 30l150 1071q4 23 -1 31t-26 10l-127 14
l21 152h1067l-58 -414l-215 10l-6 156q-2 27 -33 27z" />
    <glyph glyph-name="edotaccent" unicode="&#x117;" horiz-adv-x="1036" 
d="M703 1235q-87 0 -128 41t-41 126t56 141q55 56 143 56q172 0 172 -151q0 -98 -57 -156q-58 -57 -145 -57zM750 788q0 78 -92 78t-158 -70q-65 -70 -88 -192q338 47 338 184zM84 412q0 313 174 494t434 181q166 -1 251 -71t85 -186q0 -224 -197 -318q-168 -80 -432 -106
q12 -201 203 -201q121 0 297 74l45 -201q-221 -102 -436 -102t-320 117q-104 118 -104 319z" />
    <glyph glyph-name="Eogonek" unicode="&#x118;" horiz-adv-x="1269" 
d="M842 -479q-195 0 -195 151q0 166 234 328h-844l20 150l129 14q23 4 30 11t9 30l150 1071q4 23 -1 31t-26 10l-127 14l21 152h1067l-58 -414l-215 10l-6 156q-2 27 -33 27h-317l-55 -404h471l-33 -227h-471l-55 -412h362q29 0 35 23l57 180h215l-57 -422
q-94 -39 -174 -111t-80 -127q0 -54 47 -54t115 20l35 -152q-125 -55 -250 -55z" />
    <glyph glyph-name="eogonek" unicode="&#x119;" horiz-adv-x="1036" 
d="M750 788q0 78 -92 78t-158 -70q-65 -70 -88 -192q338 47 338 184zM551 -479q-195 1 -195 153t201 303q-12 -2 -37 -2q-227 0 -332 118q-104 118 -104 319q0 313 174 494t434 181q166 -1 251 -71t85 -186q0 -224 -197 -318q-168 -80 -432 -106q12 -201 203 -201
q121 0 297 74l45 -201q-168 -83 -270 -189q-70 -72 -70 -127q0 -54 47 -54t115 20l35 -152q-125 -55 -250 -55z" />
    <glyph glyph-name="Ecaron" unicode="&#x11a;" horiz-adv-x="1269" 
d="M1202 1823l-278 -228h-213l-217 228l122 116l220 -165l266 165zM997 1262h-317l-55 -404h471l-33 -227h-471l-55 -412h362q29 0 35 23l57 180h215l-57 -422h-1112l20 150l129 14q23 4 30 11t9 30l150 1071q4 23 -1 31t-26 10l-127 14l21 152h1067l-58 -414l-215 10
l-6 156q-2 27 -33 27z" />
    <glyph glyph-name="ecaron" unicode="&#x11b;" horiz-adv-x="1036" 
d="M1081 1456l-288 -264h-213l-213 264l131 107l209 -191l262 191zM750 788q0 78 -92 78t-158 -70q-65 -70 -88 -192q338 47 338 184zM84 412q0 313 174 494t434 181q166 -1 251 -71t85 -186q0 -224 -197 -318q-168 -80 -432 -106q12 -201 203 -201q121 0 297 74l45 -201
q-221 -102 -436 -102t-320 117q-104 118 -104 319z" />
    <glyph glyph-name="Gcircumflex" unicode="&#x11c;" horiz-adv-x="1468" 
d="M1309 1686l-125 -115l-219 166l-265 -166l-100 115l281 229h213zM942 1272q-227 0 -361 -173t-135 -464q0 -424 361 -424q117 0 180 20q23 6 29 35l39 264h-226l54 185h616l-22 -164l-82 -8q-35 -2 -37 -29l-60 -440q-218 -98 -544 -98t-481 174t-154 464q0 400 223 648
t637 247q121 -1 246 -31t202 -87l-51 -387l-221 16l-6 182q0 37 -25 43q-84 27 -182 27z" />
    <glyph glyph-name="gcircumflex" unicode="&#x11d;" horiz-adv-x="1206" 
d="M1075 1257l-133 -106l-207 190l-264 -190l-111 106l287 265h213zM662 854q-98 0 -158 -84q-99 -136 -101 -362q0 -88 29 -126t88 -38q110 -1 266 151l56 381q-82 78 -180 78zM401 -12q-313 0 -313 397q0 250 112 464q56 107 160 173t242 65q170 0 283 -116l39 96h264
q-43 -195 -53 -274l-115 -826q-57 -424 -500 -424q-139 0 -265 37t-181 76l96 190q37 -28 131 -58q93 -30 201 -30t171 54t77 178l24 176l-6 4q-104 -90 -185 -136t-182 -46z" />
    <glyph glyph-name="Gbreve" unicode="&#x11e;" horiz-adv-x="1468" 
d="M948 1602q-277 0 -305 268l160 55q31 -139 166 -139t209 141l151 -57q-104 -268 -381 -268zM942 1272q-227 0 -361 -173t-135 -464q0 -424 361 -424q117 0 180 20q23 6 29 35l39 264h-226l54 185h616l-22 -164l-82 -8q-35 -2 -37 -29l-60 -440q-218 -98 -544 -98
t-481 174t-154 464q0 400 223 648t637 247q121 -1 246 -31t202 -87l-51 -387l-221 16l-6 182q0 37 -25 43q-84 27 -182 27z" />
    <glyph glyph-name="gbreve" unicode="&#x11f;" horiz-adv-x="1206" 
d="M697 1171q-284 0 -312 281l160 57q33 -154 172 -154t221 154l152 -57q-109 -281 -393 -281zM662 854q-98 0 -158 -84q-99 -136 -101 -362q0 -88 29 -126t88 -38q110 -1 266 151l56 381q-82 78 -180 78zM401 -12q-313 0 -313 397q0 250 112 464q56 107 160 173t242 65
q170 0 283 -116l39 96h264q-43 -195 -53 -274l-115 -826q-57 -424 -500 -424q-139 0 -265 37t-181 76l96 190q37 -28 131 -58q93 -30 201 -30t171 54t77 178l24 176l-6 4q-104 -90 -185 -136t-182 -46z" />
    <glyph glyph-name="Gdotaccent" unicode="&#x120;" horiz-adv-x="1468" 
d="M1004 1964q163 0 163 -163q0 -85 -57 -143q-56 -58 -146 -58t-133 40q-43 41 -43 126q0 86 58 142t158 56zM942 1272q-227 0 -361 -173t-135 -464q0 -424 361 -424q117 0 180 20q23 6 29 35l39 264h-226l54 185h616l-22 -164l-82 -8q-35 -2 -37 -29l-60 -440
q-218 -98 -544 -98t-481 174t-154 464q0 400 223 648t637 247q121 -1 246 -31t202 -87l-51 -387l-221 16l-6 182q0 37 -25 43q-84 27 -182 27z" />
    <glyph glyph-name="gdotaccent" unicode="&#x121;" horiz-adv-x="1206" 
d="M758 1599q160 0 160 -163q0 -86 -58 -144t-144 -57q-87 0 -128 41t-41 126t55 141t156 56zM662 854q-98 0 -158 -84q-99 -136 -101 -362q0 -88 29 -126t88 -38q110 -1 266 151l56 381q-82 78 -180 78zM401 -12q-313 0 -313 397q0 250 112 464q56 107 160 173t242 65
q170 0 283 -116l39 96h264q-43 -195 -53 -274l-115 -826q-57 -424 -500 -424q-139 0 -265 37t-181 76l96 190q37 -28 131 -58q93 -30 201 -30t171 54t77 178l24 176l-6 4q-104 -90 -185 -136t-182 -46z" />
    <glyph glyph-name="Gcommaaccent" unicode="&#x122;" horiz-adv-x="1468" 
d="M680 -600l-125 39l70 196q6 20 -9 25l-73 27l69 200q125 -1 190 -27q64 -26 64 -94t-61 -167zM942 1272q-227 0 -361 -173t-135 -464q0 -424 361 -424q117 0 180 20q23 6 29 35l39 264h-226l54 185h616l-22 -164l-82 -8q-35 -2 -37 -29l-60 -440q-218 -98 -544 -98
t-481 174t-154 464q0 400 223 648t637 247q121 -1 246 -31t202 -87l-51 -387l-221 16l-6 182q0 37 -25 43q-84 27 -182 27z" />
    <glyph glyph-name="gcommaaccent" unicode="&#x123;" horiz-adv-x="1206" 
d="M854 1350l-70 -201q-125 2 -188 28q-64 26 -64 94t62 167l123 198l125 -39l-70 -196q-6 -20 6 -25zM662 854q-98 0 -158 -84q-99 -136 -101 -362q0 -88 29 -126t88 -38q110 -1 266 151l56 381q-82 78 -180 78zM401 -12q-313 0 -313 397q0 250 112 464q56 107 160 173
t242 65q170 0 283 -116l39 96h264q-43 -195 -53 -274l-115 -826q-57 -424 -500 -424q-139 0 -265 37t-181 76l96 190q37 -28 131 -58q93 -30 201 -30t171 54t77 178l24 176l-6 4q-104 -90 -185 -136t-182 -46z" />
    <glyph glyph-name="Hcircumflex" unicode="&#x124;" horiz-adv-x="1642" 
d="M1364 1686l-125 -115l-219 166l-264 -166l-101 115l281 229h213zM1534 0h-635l23 150l127 14q20 2 26 10t10 31l64 442h-551l-61 -440q-4 -25 0 -32t24 -9l133 -16l-20 -150h-635l20 150l129 14q20 2 27 10q6 8 10 31l150 1069q4 23 -2 31t-27 10l-123 14l21 154h635
l-21 -154l-137 -16q-23 -4 -29 -10t-8 -29l-53 -397h549l55 397q4 25 -1 32t-26 9l-125 14l21 154h635l-21 -154l-135 -16q-23 -2 -28 -8t-9 -31l-149 -1067q-4 -25 0 -32t26 -9l133 -16z" />
    <glyph glyph-name="hcircumflex" unicode="&#x125;" horiz-adv-x="1269" 
d="M819 1686l-125 -115l-219 166l-264 -166l-100 115l280 229h213zM801 821q-94 0 -269 -145l-65 -469q-4 -25 1 -32t28 -9l102 -14l-20 -152h-560l21 154l90 12q20 4 28 11q7 7 9 30l156 1106q6 35 -19 43l-102 35l22 155h418l-90 -647l6 -4q88 73 123 101q34 28 106 60
t146 31q110 1 174 -65t63 -184q0 -33 -8 -107l-74 -524q-4 -25 0 -32t27 -9l100 -14l-20 -152h-438l-4 8l39 221l61 453q26 139 -51 139z" />
    <glyph glyph-name="Hbar" unicode="&#x126;" horiz-adv-x="1662" 
d="M641 877h549l18 143h-549zM1544 0h-635l23 150l127 14q20 2 26 10t11 31l63 442h-551l-61 -440q-4 -25 0 -32t24 -9l134 -16l-21 -150h-635l21 150l129 14q20 2 26 10t11 31l108 776h-133l29 209h133l12 84q4 23 -2 31t-27 10l-123 14l21 154h635l-21 -154l-137 -16
q-23 -4 -29 -10t-8 -29l-12 -94h549l14 94q4 25 -1 32t-25 9l-125 14l20 154h635l-20 -154l-136 -16q-23 -2 -27 -8t-10 -31l-12 -84h139l-28 -209h-139l-109 -774q-4 -25 0 -32t27 -9l133 -16z" />
    <glyph glyph-name="hbar" unicode="&#x127;" horiz-adv-x="1271" 
d="M924 1018q238 0 237 -270q0 -43 -6 -86l-68 -455q-4 -25 0 -32t27 -9l100 -14l-20 -152h-438l-4 12l94 600q14 46 2 94t-62 46q-104 -3 -260 -146l-59 -399q-4 -25 0 -31t27 -10l98 -14l-21 -152h-553l21 154l90 12q20 4 28 11q7 7 9 30l125 893h-125l24 170h125l7 43
q6 35 -19 43l-102 35l22 155h418l-39 -276h338l-25 -170h-335l-37 -271l6 -4q84 72 123 102q40 31 110 61t142 30z" />
    <glyph glyph-name="Itilde" unicode="&#x128;" horiz-adv-x="782" 
d="M734 1599q-50 0 -159 29l-153 41q-20 6 -35 -8l-72 -66l-118 80l73 107q63 96 154 96q66 0 186 -32t138 -32q20 0 30 13l56 59l124 -80l-57 -84q-47 -68 -82 -96t-85 -27zM696 0h-673l16 150l149 14q20 2 27 9q6 7 10 32l152 1069q4 23 -2 31t-27 10l-143 14l20 154h676
l-22 -154l-156 -16q-23 -2 -28 -8t-9 -31l-149 -1067q-4 -25 0 -32t24 -9l154 -16z" />
    <glyph glyph-name="itilde" unicode="&#x129;" horiz-adv-x="651" 
d="M573 0h-442l-4 10l49 277l76 547q6 35 -21 43l-100 34l21 156h436l-121 -860q-4 -25 1 -32t28 -9l98 -14zM266 1462q38 0 142 -36t137 -42q12 0 28 13l66 65l123 -76l-60 -83q-44 -66 -78 -95q-34 -28 -77 -28t-99 19t-92 31t-62 19q-24 7 -38 11t-33 -15l-71 -65
l-111 75l76 105q72 102 149 102z" />
    <glyph glyph-name="Imacron" unicode="&#x12a;" horiz-adv-x="782" 
d="M911 1608h-649l27 204h649zM696 0h-673l16 150l149 14q20 2 27 9q6 7 10 32l152 1069q4 23 -2 31t-27 10l-143 14l20 154h676l-22 -154l-156 -16q-23 -2 -28 -8t-9 -31l-149 -1067q-4 -25 0 -32t24 -9l154 -16z" />
    <glyph glyph-name="imacron" unicode="&#x12b;" horiz-adv-x="651" 
d="M573 0h-442l-4 10l49 277l76 547q6 35 -21 43l-100 34l21 156h436l-121 -860q-4 -25 1 -32t28 -9l98 -14zM702 1221h-596l29 204h596z" />
    <glyph glyph-name="Ibreve" unicode="&#x12c;" horiz-adv-x="782" 
d="M576 1602q-276 0 -306 268l160 55q31 -139 166 -139t209 141l151 -57q-104 -268 -380 -268zM696 0h-673l16 150l149 14q20 2 27 9q6 7 10 32l152 1069q4 23 -2 31t-27 10l-143 14l20 154h676l-22 -154l-156 -16q-23 -2 -28 -8t-9 -31l-149 -1067q-4 -25 0 -32t24 -9
l154 -16z" />
    <glyph glyph-name="ibreve" unicode="&#x12d;" horiz-adv-x="651" 
d="M573 0h-442l-4 10l49 277l76 547q6 35 -21 43l-100 34l21 156h436l-121 -860q-4 -25 1 -32t28 -9l98 -14zM403 1165q-267 0 -294 281l159 57q29 -154 156 -153q123 -1 197 153l151 -57q-102 -281 -369 -281z" />
    <glyph glyph-name="Iogonek" unicode="&#x12e;" horiz-adv-x="782" 
d="M266 -479q-195 0 -194 151q0 166 233 328h-282l16 150l149 14q20 2 27 9q6 7 10 32l152 1069q4 23 -2 31t-27 10l-143 14l20 154h676l-22 -154l-156 -16q-23 -2 -28 -8t-9 -31l-149 -1067q-4 -25 0 -32t24 -9l154 -16l-19 -150h-188q-188 -145 -189 -244q0 -48 47 -48
t115 20l35 -152q-125 -55 -250 -55z" />
    <glyph glyph-name="iogonek" unicode="&#x12f;" horiz-adv-x="651" 
d="M441 1231q-169 1 -169 167q0 84 56 140t143 57q172 0 172 -151q0 -98 -57 -156q-58 -57 -145 -57zM276 -479q-195 0 -194 151q0 166 233 328h-184l-4 10l49 277l76 547q6 35 -21 43l-100 34l21 156h436l-121 -860q-4 -25 1 -32t28 -9l98 -14l-21 -152q-91 -49 -167 -119
t-76 -122q0 -51 47 -51t115 20l34 -152q-125 -55 -250 -55z" />
    <glyph glyph-name="Idotaccent" unicode="&#x130;" horiz-adv-x="782" 
d="M633 1964q164 0 164 -163q-1 -85 -59 -143t-146 -58t-131 40q-43 41 -43 126q0 86 57 142t158 56zM696 0h-673l16 150l149 14q20 2 27 9q6 7 10 32l152 1069q4 23 -2 31t-27 10l-143 14l20 154h676l-22 -154l-156 -16q-23 -2 -28 -8t-9 -31l-149 -1067q-4 -25 0 -32
t24 -9l154 -16z" />
    <glyph glyph-name="dotlessi" unicode="&#x131;" horiz-adv-x="651" 
d="M573 0h-442l-4 10l49 277l76 547q6 35 -21 43l-100 34l21 156h436l-121 -860q-4 -25 1 -32t28 -9l98 -14z" />
    <glyph glyph-name="IJ" unicode="&#x132;" horiz-adv-x="1806" 
d="M1184 -25q-115 0 -220 25t-147 55l51 365l217 -17l2 -145q0 -25 15 -29q33 -12 87 -12q54 1 79 27t35 92l131 940q6 37 -29 39l-178 14l20 154h690l-22 -154l-137 -16q-25 -4 -29 -12q-4 -9 -6 -25l-133 -942q-25 -184 -125 -272t-301 -87zM696 0h-673l16 150l149 14
q20 2 27 9q6 7 10 32l152 1069q4 23 -2 31t-27 10l-143 14l20 154h676l-22 -154l-156 -16q-23 -2 -28 -8t-9 -31l-149 -1067q-4 -25 0 -32t24 -9l154 -16z" />
    <glyph glyph-name="ij" unicode="&#x133;" horiz-adv-x="1296" 
d="M1092 1231q-170 1 -170 167q0 84 56 140t144 57q172 0 172 -151q0 -96 -57 -155q-58 -58 -145 -58zM678 -457q-109 0 -198 36t-122 69l105 170q81 -54 157 -54t110 38t48 141l127 891q2 33 -20 43l-105 34l21 156h436l-162 -1176q-25 -182 -124 -265t-273 -83zM573 0
h-442l-4 10l49 277l76 547q6 35 -21 43l-100 34l21 156h436l-121 -860q-4 -25 1 -32t28 -9l98 -14zM441 1231q-169 1 -169 167q0 84 56 140t143 57q172 0 172 -151q0 -98 -57 -156q-58 -57 -145 -57z" />
    <glyph glyph-name="Jcircumflex" unicode="&#x134;" 
d="M1202 1686l-125 -115l-219 166l-264 -166l-100 115l280 229h213zM401 -25q-115 0 -220 25t-146 55l51 365l217 -17l2 -145q0 -25 14 -29q33 -12 87 -12q54 1 80 27q24 26 34 92l131 940q6 37 -28 39l-179 14l21 154h690l-22 -154l-138 -16q-24 -3 -28 -12t-6 -25
l-134 -942q-25 -184 -125 -272t-301 -87z" />
    <glyph glyph-name="jcircumflex" unicode="&#x135;" horiz-adv-x="645" 
d="M47 -457q-109 0 -198 36t-121 69l104 170q82 -54 158 -54t109 38q34 38 48 141l127 891q2 33 -20 43l-107 34l23 156h436l-162 -1176q-26 -182 -124 -265t-273 -83zM766 1266l-133 -107l-207 191l-264 -191l-111 107l287 264h213z" />
    <glyph glyph-name="Kcommaaccent" unicode="&#x136;" horiz-adv-x="1505" 
d="M682 -600l-125 39l70 196q6 20 -9 25l-73 27l69 200q125 -1 190 -27q64 -26 64 -94t-61 -167zM1454 0h-418l-14 10l-72 172l-209 428l-174 -180l-32 -221q-4 -25 0 -32t24 -9l135 -16l-20 -152h-635l20 152l127 14q23 2 30 9t9 32l150 1069q6 37 -27 41l-123 14l19 152
h635l-19 -152l-139 -16q-23 -4 -29 -10t-8 -29l-74 -520l551 557l-121 16l21 154h526l-20 -154l-86 -14q-41 -6 -66 -35l-430 -436l313 -633q16 -33 56 -39l121 -20z" />
    <glyph glyph-name="kcommaaccent" unicode="&#x137;" horiz-adv-x="1245" 
d="M748 -234q0 -68 -62 -167l-125 -199l-125 39l70 196q6 20 -8 25l-74 27l70 200q126 -1 190 -27t64 -94zM1194 0h-385l-6 4l-68 225l-108 295l-129 -123l-29 -194q-4 -25 0 -32t27 -9l102 -14l-20 -152h-560l19 154l94 12q20 4 28 11q7 7 9 30l154 1106q6 33 -21 43
l-102 35l22 155h436l-120 -870l315 293q78 71 138 95t120 24t133 -13l-22 -178q-113 6 -207 -82l-123 -115l178 -499q12 -31 57 -37l91 -14z" />
    <glyph glyph-name="kgreenlandic" unicode="&#x138;" horiz-adv-x="1245" 
d="M1194 0h-385l-6 4l-68 225l-108 295l-129 -123l-29 -194q-4 -25 0 -32t27 -9l102 -14l-20 -152h-560l19 154l94 12q20 4 28 11q7 7 9 30l88 627q6 33 -20 43l-103 34l23 156h436l-55 -391l315 293q78 71 138 95t120 24t133 -13l-22 -178q-113 6 -207 -82l-123 -115
l178 -499q12 -31 57 -37l91 -14z" />
    <glyph glyph-name="Lacute" unicode="&#x139;" horiz-adv-x="1243" 
d="M856 1745l-461 -174l-65 145l434 240zM897 219q29 0 37 23l59 204h219l-61 -446h-1112l20 152l127 14q23 4 30 11t9 30l150 1069q4 23 -1 31t-26 10l-123 14l17 152h669l-20 -152l-170 -16q-21 -2 -27 -9t-10 -30l-147 -1057h360z" />
    <glyph glyph-name="lacute" unicode="&#x13a;" horiz-adv-x="651" 
d="M745 1786l-460 -174l-66 145l434 240zM571 0h-442l-6 10l49 277l145 1026q6 35 -20 43l-102 35l22 155h436l-188 -1339q-4 -25 0 -32t27 -9l98 -14z" />
    <glyph glyph-name="Lcommaaccent" unicode="&#x13b;" horiz-adv-x="1243" 
d="M717 -234q0 -68 -62 -167l-125 -199l-124 39l69 196q6 20 -8 25l-74 27l70 200q125 -1 189 -27t65 -94zM897 219q29 0 37 23l59 204h219l-61 -446h-1112l20 152l127 14q23 4 30 11t9 30l150 1069q4 23 -1 31t-26 10l-123 14l17 152h669l-20 -152l-170 -16q-21 -2 -27 -9
t-10 -30l-147 -1057h360z" />
    <glyph glyph-name="lcommaaccent" unicode="&#x13c;" horiz-adv-x="651" 
d="M465 -234q0 -68 -62 -167l-124 -199l-125 39l69 196q6 20 -8 25l-74 27l70 200q125 -1 189 -27t65 -94zM571 0h-442l-6 10l49 277l145 1026q6 35 -20 43l-102 35l22 155h436l-188 -1339q-4 -25 0 -32t27 -9l98 -14z" />
    <glyph glyph-name="Lcaron" unicode="&#x13d;" horiz-adv-x="1243" 
d="M1047 1358q0 35 -19 96l201 70q57 -62 57 -114t-28 -120t-148 -266l-141 59q78 172 78 275zM897 219q29 0 37 23l59 204h219l-61 -446h-1112l20 152l127 14q23 4 30 11t9 30l150 1069q4 23 -1 31t-26 10l-123 14l17 152h669l-20 -152l-170 -16q-21 -2 -27 -9t-10 -30
l-147 -1057h360z" />
    <glyph glyph-name="lcaron" unicode="&#x13e;" horiz-adv-x="876" 
d="M754 1413q0 35 -19 96l201 70q57 -61 57 -113q-1 -52 -29 -122q-28 -68 -147 -265l-141 60q78 172 78 274zM571 0h-442l-6 10l49 277l145 1026q6 35 -20 43l-102 35l22 155h436l-188 -1339q-4 -25 0 -32t27 -9l98 -14z" />
    <glyph glyph-name="Ldot" unicode="&#x13f;" horiz-adv-x="1243" 
d="M1102 999q158 0 158 -156q0 -81 -56 -136t-140 -55q-85 0 -126 38q-41 39 -41 121t54 135t151 53zM897 219q29 0 37 23l59 204h219l-61 -446h-1112l20 152l127 14q23 4 30 11t9 30l150 1069q4 23 -1 31t-26 10l-123 14l17 152h669l-20 -152l-170 -16q-21 -2 -27 -9
t-10 -30l-147 -1057h360z" />
    <glyph glyph-name="ldot" unicode="&#x140;" horiz-adv-x="870" 
d="M852 985q152 -1 152 -157q0 -80 -54 -134t-138 -55q-161 0 -161 145q-1 92 53 146t148 55zM571 0h-442l-6 10l49 277l145 1026q6 35 -20 43l-102 35l22 155h436l-188 -1339q-4 -25 0 -32t27 -9l98 -14z" />
    <glyph glyph-name="Lslash" unicode="&#x141;" horiz-adv-x="1222" 
d="M897 219q29 0 37 23l59 204h219l-61 -446h-1112l20 152l127 14q23 4 30 11t9 30l49 358l-194 -73l33 227l194 76l68 481q4 23 -1 31t-26 10l-123 14l17 152h669l-20 -152l-170 -16q-21 -2 -27 -9t-10 -30l-55 -387l395 153l-33 -231l-393 -152l-61 -440h360z" />
    <glyph glyph-name="lslash" unicode="&#x142;" horiz-adv-x="663" 
d="M571 0h-442l-6 10l49 277l51 360l-147 -61l30 229l150 62l61 436q6 35 -20 43l-102 35l22 155h436l-82 -581l158 65l-33 -229l-157 -66l-74 -528q-4 -25 0 -32t27 -9l98 -14z" />
    <glyph glyph-name="Nacute" unicode="&#x143;" horiz-adv-x="1662" 
d="M1321 1745l-461 -174l-65 145l434 240zM1397 0h-328l-491 1075l-121 -868q-4 -25 1 -32t25 -9l133 -16l-18 -150h-559l18 150l129 14q23 4 30 11t9 30l150 1071q4 25 -1 32t-26 9l-123 14l17 152h497l484 -1077l123 868q4 23 -1 31t-26 10l-125 14l18 154h557l-20 -154
l-137 -16q-25 -4 -29 -13q-4 -10 -6 -26z" />
    <glyph glyph-name="nacute" unicode="&#x144;" horiz-adv-x="1269" 
d="M1026 1427l-381 -278l-113 119l336 334zM801 823q-98 0 -266 -147l-64 -469q-4 -25 0 -32t27 -9l102 -14l-20 -152h-562l21 154l90 12q20 4 28 11q7 7 9 30l86 624q6 35 -19 43l-100 37l23 156h405l-22 -168l6 -2q74 63 119 96q46 33 118 64t148 30q233 0 241 -243
q0 -61 -8 -113l-73 -524q-4 -25 0 -32t24 -9l103 -14l-21 -152h-442l-4 6l45 250l59 426q27 141 -53 141z" />
    <glyph glyph-name="Ncommaaccent" unicode="&#x145;" horiz-adv-x="1662" 
d="M924 -234q0 -68 -62 -167l-125 -199l-125 39l70 196q10 18 -6 25l-76 27l70 200q126 -1 190 -27t64 -94zM1397 0h-328l-491 1075l-121 -868q-4 -25 1 -32t25 -9l133 -16l-18 -150h-559l18 150l129 14q23 4 30 11t9 30l150 1071q4 25 -1 32t-26 9l-123 14l17 152h497
l484 -1077l123 868q4 23 -1 31t-26 10l-125 14l18 154h557l-20 -154l-137 -16q-25 -4 -29 -13q-4 -10 -6 -26z" />
    <glyph glyph-name="ncommaaccent" unicode="&#x146;" horiz-adv-x="1269" 
d="M748 -234q0 -68 -62 -167l-125 -199l-125 39l70 196q6 20 -8 25l-74 27l70 200q126 -1 190 -27t64 -94zM801 823q-98 0 -266 -147l-64 -469q-4 -25 0 -32t27 -9l102 -14l-20 -152h-562l21 154l90 12q20 4 28 11q7 7 9 30l86 624q6 35 -19 43l-100 37l23 156h405l-22 -168
l6 -2q74 63 119 96q46 33 118 64t148 30q233 0 241 -243q0 -61 -8 -113l-73 -524q-4 -25 0 -32t24 -9l103 -14l-21 -152h-442l-4 6l45 250l59 426q27 141 -53 141z" />
    <glyph glyph-name="Ncaron" unicode="&#x147;" horiz-adv-x="1662" 
d="M1382 1823l-278 -228h-213l-217 228l123 116l219 -165l266 165zM1397 0h-328l-491 1075l-121 -868q-4 -25 1 -32t25 -9l133 -16l-18 -150h-559l18 150l129 14q23 4 30 11t9 30l150 1071q4 25 -1 32t-26 9l-123 14l17 152h497l484 -1077l123 868q4 23 -1 31t-26 10
l-125 14l18 154h557l-20 -154l-137 -16q-25 -4 -29 -13q-4 -10 -6 -26z" />
    <glyph glyph-name="ncaron" unicode="&#x148;" horiz-adv-x="1269" 
d="M1135 1456l-289 -264h-213l-213 264l131 107l209 -191l262 191zM801 823q-98 0 -266 -147l-64 -469q-4 -25 0 -32t27 -9l102 -14l-20 -152h-562l21 154l90 12q20 4 28 11q7 7 9 30l86 624q6 35 -19 43l-100 37l23 156h405l-22 -168l6 -2q74 63 119 96q46 33 118 64
t148 30q233 0 241 -243q0 -61 -8 -113l-73 -524q-4 -25 0 -32t24 -9l103 -14l-21 -152h-442l-4 6l45 250l59 426q27 141 -53 141z" />
    <glyph glyph-name="napostrophe" unicode="&#x149;" horiz-adv-x="1306" 
d="M94 1020l-100 39l61 155q6 16 -6 21l-61 20l55 158q96 0 148 -20q53 -19 53 -77t-45 -128zM838 823q-98 0 -267 -147l-63 -469q-4 -25 0 -32t27 -9l102 -14l-21 -152h-561l21 154l90 12q20 4 28 11q7 7 9 30l86 624q6 35 -19 43l-100 37l23 156h405l-23 -168l7 -2
q74 63 118 96t118 64q73 31 149 30q233 0 241 -243q0 -61 -8 -113l-74 -524q-4 -25 0 -32t25 -9l102 -14l-20 -152h-442l-5 6l45 250l60 426q27 141 -53 141z" />
    <glyph glyph-name="Eng" unicode="&#x14a;" horiz-adv-x="1662" 
d="M950 -457q-113 0 -214 38t-132 69l105 170q27 -18 85 -36t109 -20q158 0 182 179l9 57l-516 1075l-121 -868q-4 -25 1 -32t25 -9l133 -16l-18 -150h-559l18 150l129 14q33 2 39 45l150 1067q4 25 -1 32t-26 9l-123 14l17 152h497l488 -1051l119 842q2 23 -2 30t-25 11
l-125 14l18 154h557l-20 -154l-137 -16q-31 -2 -37 -41l-184 -1315q-10 -68 -21 -107q-30 -158 -142 -232t-278 -75z" />
    <glyph glyph-name="eng" unicode="&#x14b;" horiz-adv-x="1267" 
d="M858 748q0 76 -61 75q-94 0 -265 -147l-63 -469q-7 -29 2 -33q10 -4 27 -8l96 -14l-21 -152h-555l21 154l90 12q20 4 28 11q7 7 9 30l86 624q6 37 -19 43l-100 37l23 156h405l-22 -168l6 -2q74 63 119 96q46 33 118 64t148 30q233 0 241 -243q0 -61 -8 -113l-116 -840
q-27 -167 -107 -249t-223 -95q-49 -2 -125 1t-156 37t-106 63l104 170q82 -54 158 -54t110 38t48 141l102 739q6 37 6 66z" />
    <glyph glyph-name="Omacron" unicode="&#x14c;" horiz-adv-x="1550" 
d="M1296 1608h-649l27 204h649zM451 635q0 -408 317 -408q196 -1 318 147t141 466q0 80 -4 114q-35 303 -301 303q-152 0 -263 -94q-208 -176 -208 -528zM721 -25q-309 0 -455 161q-145 161 -145 450q0 406 218 664t619 259q303 0 450 -163q146 -164 146 -435
q0 -438 -220 -687t-613 -249z" />
    <glyph glyph-name="omacron" unicode="&#x14d;" horiz-adv-x="1183" 
d="M1057 1227h-649l28 205h649zM575 190q117 0 191 111t74 338t-170 227q-117 0 -194 -108t-77 -338t176 -230zM551 -25q-233 0 -350 118t-117 323q0 303 164 487t457 184q241 -1 349 -119t107 -315q-1 -309 -157 -493t-453 -185z" />
    <glyph glyph-name="Obreve" unicode="&#x14e;" horiz-adv-x="1550" 
d="M960 1602q-276 0 -305 268l160 55q31 -139 166 -139t209 141l151 -57q-105 -268 -381 -268zM451 635q0 -408 317 -408q196 -1 318 147t141 466q0 80 -4 114q-35 303 -301 303q-152 0 -263 -94q-208 -176 -208 -528zM721 -25q-309 0 -455 161q-145 161 -145 450
q0 406 218 664t619 259q303 0 450 -163q146 -164 146 -435q0 -438 -220 -687t-613 -249z" />
    <glyph glyph-name="obreve" unicode="&#x14f;" horiz-adv-x="1183" 
d="M712 1171q-284 0 -313 281l160 57q33 -154 172 -154t221 154l152 -57q-108 -281 -392 -281zM575 190q117 0 191 111t74 338t-170 227q-117 0 -194 -108t-77 -338t176 -230zM551 -25q-233 0 -350 118t-117 323q0 303 164 487t457 184q241 -1 349 -119t107 -315
q-1 -309 -157 -493t-453 -185z" />
    <glyph glyph-name="Ohungarumlaut" unicode="&#x150;" horiz-adv-x="1550" 
d="M1509 1841l-387 -280l-96 104l338 336zM1114 1870l-360 -311l-117 108l321 356zM451 635q0 -408 317 -408q196 -1 318 147t141 466q0 80 -4 114q-35 303 -301 303q-152 0 -263 -94q-208 -176 -208 -528zM721 -25q-309 0 -455 161q-145 161 -145 450q0 406 218 664
t619 259q303 0 450 -163q146 -164 146 -435q0 -438 -220 -687t-613 -249z" />
    <glyph glyph-name="ohungarumlaut" unicode="&#x151;" horiz-adv-x="1183" 
d="M1253 1454l-364 -307l-115 104l318 355zM858 1454l-366 -307l-113 104l313 357zM575 190q117 0 191 111t74 338t-170 227q-117 0 -194 -108t-77 -338t176 -230zM551 -25q-233 0 -350 118t-117 323q0 303 164 487t457 184q241 -1 349 -119t107 -315q-1 -309 -157 -493
t-453 -185z" />
    <glyph glyph-name="OE" unicode="&#x152;" horiz-adv-x="2052" 
d="M737 227q193 0 298 155t106 478q0 397 -291 397q-186 -1 -300 -159t-114 -473q0 -398 301 -398zM694 -25q-287 1 -433 175t-146 462q0 393 203 645q204 252 563 252q119 0 211 -26h1001l-57 -414l-217 10l-7 156q0 27 -32 27h-441q96 -147 97 -404h442l-31 -227h-424
q-41 -254 -182 -412h440q29 0 37 23l56 180h217l-58 -422h-1034q-96 -25 -205 -25z" />
    <glyph glyph-name="oe" unicode="&#x153;" horiz-adv-x="1775" 
d="M1475 784q-1 82 -93 82t-157 -70t-88 -192q338 47 338 180zM571 190q125 0 197 110t72 338t-172 228q-270 0 -271 -436q0 -240 174 -240zM661 1087q269 0 373 -182q158 182 393 182q162 -1 245 -71t83 -186q0 -224 -212 -322q-180 -84 -419 -102q6 -96 52 -148t158 -53
q112 0 290 74l45 -201q-236 -111 -455 -98q-104 8 -179 55t-109 115q-145 -174 -406 -175q-219 0 -329 121t-109 332q0 295 155 477t424 182z" />
    <glyph glyph-name="Racute" unicode="&#x154;" horiz-adv-x="1378" 
d="M1112 1745l-461 -174l-65 145l434 240zM713 819q307 0 307 262q0 95 -57 137t-183 42h-100l-59 -441h92zM915 1483q221 1 325 -101t103 -262q0 -309 -323 -440q39 -20 59 -57t35 -107l68 -303q8 -37 51 -43l125 -16l-21 -154h-422l-12 10l-112 504q-10 49 -32 71t-73 21
h-96l-55 -395q-4 -25 0 -32t24 -9l121 -16l-18 -154h-621l18 154l129 14q20 2 27 9q6 7 10 32l152 1067q6 37 -27 41l-123 14l17 152h671z" />
    <glyph glyph-name="racute" unicode="&#x155;" horiz-adv-x="962" 
d="M928 1427l-381 -278l-113 119l336 334zM705 836q-57 0 -160 -107l-72 -520q-4 -25 1 -32t28 -9l194 -16l-22 -152h-656l21 154l94 12q20 2 27 10q6 8 10 31l86 624q4 35 -20 43l-103 37l23 156h405l-26 -184l6 -4q145 209 325 208q94 0 158 -18l-51 -373l-240 9l-6 106
q-2 25 -22 25z" />
    <glyph glyph-name="Rcommaaccent" unicode="&#x156;" horiz-adv-x="1378" 
d="M840 -234q0 -68 -62 -167l-125 -199l-125 39l70 196q10 18 -6 25l-76 27l70 200q126 -1 190 -27t64 -94zM713 819q307 0 307 262q0 95 -57 137t-183 42h-100l-59 -441h92zM915 1483q221 1 325 -101t103 -262q0 -309 -323 -440q39 -20 59 -57t35 -107l68 -303
q8 -37 51 -43l125 -16l-21 -154h-422l-12 10l-112 504q-10 49 -32 71t-73 21h-96l-55 -395q-4 -25 0 -32t24 -9l121 -16l-18 -154h-621l18 154l129 14q20 2 27 9q6 7 10 32l152 1067q6 37 -27 41l-123 14l17 152h671z" />
    <glyph glyph-name="rcommaaccent" unicode="&#x157;" horiz-adv-x="962" 
d="M453 -234q0 -68 -62 -167l-125 -199l-125 39l70 196q6 20 -8 25l-74 27l70 200q125 -1 189 -27t65 -94zM705 836q-57 0 -160 -107l-72 -520q-4 -25 1 -32t28 -9l194 -16l-22 -152h-656l21 154l94 12q20 2 27 10q6 8 10 31l86 624q4 35 -20 43l-103 37l23 156h405
l-26 -184l6 -4q145 209 325 208q94 0 158 -18l-51 -373l-240 9l-6 106q-2 25 -22 25z" />
    <glyph glyph-name="Rcaron" unicode="&#x158;" horiz-adv-x="1378" 
d="M1186 1823l-279 -228h-213l-217 228l123 116l219 -165l266 165zM713 819q307 0 307 262q0 95 -57 137t-183 42h-100l-59 -441h92zM915 1483q221 1 325 -101t103 -262q0 -309 -323 -440q39 -20 59 -57t35 -107l68 -303q8 -37 51 -43l125 -16l-21 -154h-422l-12 10
l-112 504q-10 49 -32 71t-73 21h-96l-55 -395q-4 -25 0 -32t24 -9l121 -16l-18 -154h-621l18 154l129 14q20 2 27 9q6 7 10 32l152 1067q6 37 -27 41l-123 14l17 152h671z" />
    <glyph glyph-name="rcaron" unicode="&#x159;" horiz-adv-x="962" 
d="M1004 1456l-289 -264h-213l-213 264l131 107l209 -191l262 191zM705 836q-57 0 -160 -107l-72 -520q-4 -25 1 -32t28 -9l194 -16l-22 -152h-656l21 154l94 12q20 2 27 10q6 8 10 31l86 624q4 35 -20 43l-103 37l23 156h405l-26 -184l6 -4q145 209 325 208q94 0 158 -18
l-51 -373l-240 9l-6 106q-2 25 -22 25z" />
    <glyph glyph-name="Sacute" unicode="&#x15a;" horiz-adv-x="1204" 
d="M1106 1745l-461 -174l-65 145l434 240zM794 1274q-98 0 -176 -49t-78 -139t108 -144q49 -23 128 -52q80 -28 120 -45q121 -52 189 -136q68 -85 68 -232q0 -250 -174 -376t-449 -126q-131 0 -265 27t-193 57l55 400h223l15 -193q2 -35 36 -45q66 -16 158 -16
q281 0 281 213q0 80 -56 122t-204 94t-213 97q-139 100 -140 291q0 238 170 362t434 125q209 0 406 -84l-55 -399l-224 18l-4 177q0 37 -30 45q-32 8 -130 8z" />
    <glyph glyph-name="sacute" unicode="&#x15b;" horiz-adv-x="978" 
d="M901 1427l-381 -278l-112 119l335 334zM580 893q-154 0 -154 -98q0 -45 38 -69t114 -50t104 -35q28 -10 84 -40q57 -31 83 -59q25 -28 49 -79t24 -113q0 -188 -138 -281t-348 -94q-131 0 -246 25t-145 47l39 297l209 -12l6 -119q0 -25 23 -33q55 -18 142 -18t133 30
t46 75q0 46 -29 73q-30 27 -58 37q-28 9 -102 31t-116 40q-43 18 -94 55q-101 71 -101 237q0 165 133 256t346 91t355 -59l-41 -297l-213 12l-4 107q0 27 -25 33q-41 10 -114 10z" />
    <glyph glyph-name="Scircumflex" unicode="&#x15c;" horiz-adv-x="1204" 
d="M1186 1686l-125 -115l-219 166l-264 -166l-101 115l281 229h213zM794 1274q-98 0 -176 -49t-78 -139t108 -144q49 -23 128 -52q80 -28 120 -45q121 -52 189 -136q68 -85 68 -232q0 -250 -174 -376t-449 -126q-131 0 -265 27t-193 57l55 400h223l15 -193q2 -35 36 -45
q66 -16 158 -16q281 0 281 213q0 80 -56 122t-204 94t-213 97q-139 100 -140 291q0 238 170 362t434 125q209 0 406 -84l-55 -399l-224 18l-4 177q0 37 -30 45q-32 8 -130 8z" />
    <glyph glyph-name="scircumflex" unicode="&#x15d;" horiz-adv-x="978" 
d="M983 1257l-133 -106l-207 190l-264 -190l-111 106l287 265h213zM580 893q-154 0 -154 -98q0 -45 38 -69t114 -50t104 -35q28 -10 84 -40q57 -31 83 -59q25 -28 49 -79t24 -113q0 -188 -138 -281t-348 -94q-131 0 -246 25t-145 47l39 297l209 -12l6 -119q0 -25 23 -33
q55 -18 142 -18t133 30t46 75q0 46 -29 73q-30 27 -58 37q-28 9 -102 31t-116 40q-43 18 -94 55q-101 71 -101 237q0 165 133 256t346 91t355 -59l-41 -297l-213 12l-4 107q0 27 -25 33q-41 10 -114 10z" />
    <glyph glyph-name="Scedilla" unicode="&#x15e;" horiz-adv-x="1204" 
d="M440 -375q50 0 90 24q39 24 39 75q0 78 -125 81l45 170q-125 4 -245 30t-172 54l55 400h223l15 -193q2 -35 36 -45q66 -16 158 -16q281 0 281 213q0 80 -56 122t-204 94t-213 97q-139 100 -140 291q0 238 170 362t434 125q209 0 406 -84l-55 -399l-224 18l-4 177
q0 37 -30 45t-130 8q-98 0 -176 -49t-78 -139t108 -144q49 -23 128 -52q80 -28 120 -45q121 -52 189 -136q68 -85 68 -232q0 -225 -140 -349t-374 -146l-18 -74q143 -41 143 -169t-90 -196q-90 -67 -200 -67t-142 16l33 141q25 -8 75 -8z" />
    <glyph glyph-name="scedilla" unicode="&#x15f;" horiz-adv-x="978" 
d="M318 -375q50 0 90 24q39 24 38 75q0 78 -124 81l47 172q-115 6 -207 29t-117 41l39 297l209 -12l6 -119q0 -25 23 -33q55 -18 142 -18t133 30t46 75q0 46 -29 73q-30 27 -58 37q-28 9 -102 31t-116 40q-43 18 -94 55q-101 71 -101 237q0 165 133 256t346 91t355 -59
l-41 -297l-213 12l-4 107q0 27 -25 33q-41 10 -114 10q-154 0 -154 -98q0 -45 38 -69t114 -50t104 -35q28 -10 84 -40q57 -31 83 -59q25 -28 49 -79t24 -113q0 -170 -112 -262t-294 -108l-18 -72q143 -41 143 -169t-90 -196q-89 -67 -199 -67t-143 16l33 141q26 -8 76 -8z
" />
    <glyph glyph-name="Scaron" unicode="&#x160;" horiz-adv-x="1204" 
d="M1208 1823l-278 -228h-213l-217 228l123 116l219 -165l266 165zM794 1274q-98 0 -176 -49t-78 -139t108 -144q49 -23 128 -52q80 -28 120 -45q121 -52 189 -136q68 -85 68 -232q0 -250 -174 -376t-449 -126q-131 0 -265 27t-193 57l55 400h223l15 -193q2 -35 36 -45
q66 -16 158 -16q281 0 281 213q0 80 -56 122t-204 94t-213 97q-139 100 -140 291q0 238 170 362t434 125q209 0 406 -84l-55 -399l-224 18l-4 177q0 37 -30 45q-32 8 -130 8z" />
    <glyph glyph-name="scaron" unicode="&#x161;" horiz-adv-x="978" 
d="M1028 1456l-289 -264h-213l-213 264l131 107l209 -191l262 191zM580 893q-154 0 -154 -98q0 -45 38 -69t114 -50t104 -35q28 -10 84 -40q57 -31 83 -59q25 -28 49 -79t24 -113q0 -188 -138 -281t-348 -94q-131 0 -246 25t-145 47l39 297l209 -12l6 -119q0 -25 23 -33
q55 -18 142 -18t133 30t46 75q0 46 -29 73q-30 27 -58 37q-28 9 -102 31t-116 40q-43 18 -94 55q-101 71 -101 237q0 165 133 256t346 91t355 -59l-41 -297l-213 12l-4 107q0 27 -25 33q-41 10 -114 10z" />
    <glyph glyph-name="uni0162" unicode="&#x162;" horiz-adv-x="1392" 
d="M528 -375q50 0 90 24q39 24 39 75q0 78 -125 81l54 195h-318l23 152l207 14q20 2 26 10t11 31l145 1053h-209q-27 0 -33 -23l-57 -178h-219l57 424h1292l-57 -424h-217l-8 178q-2 14 -7 18t-22 5h-209l-145 -1053q-4 -23 0 -30t24 -9l222 -18l-21 -150h-338l-24 -92
q143 -41 143 -169t-90 -196q-90 -67 -200 -67t-142 16l33 141q25 -8 75 -8z" />
    <glyph glyph-name="uni0163" unicode="&#x163;" horiz-adv-x="870" 
d="M312 -375q50 0 89 24t39 75q0 78 -125 81l47 179q-100 14 -146 70t-46 161q0 41 6 90l74 537q4 20 -12 20h-142l27 189q131 14 204 88t111 239h191l-41 -291q-2 -20 14 -20h283l-29 -205h-299l-68 -489q-6 -41 -6 -81q0 -89 119 -87q76 0 164 33l37 -183
q-137 -66 -293 -78l-18 -69q143 -41 143 -169t-90 -196q-89 -67 -199 -67t-143 16l33 141q26 -8 76 -8z" />
    <glyph glyph-name="Tcaron" unicode="&#x164;" horiz-adv-x="1392" 
d="M1255 1823l-278 -228h-213l-217 228l123 116l219 -165l266 165zM471 1260q-27 0 -33 -23l-57 -178h-219l57 424h1292l-57 -424h-217l-8 178q-2 14 -7 18t-22 5h-209l-145 -1053q-4 -23 0 -30t24 -9l222 -18l-21 -150h-803l23 152l207 14q20 2 26 10t11 31l145 1053h-209z
" />
    <glyph glyph-name="tcaron" unicode="&#x165;" horiz-adv-x="870" 
d="M1022 1508q0 -50 -32 -124t-142 -251l-137 57q76 172 75 268q0 33 -18 94l197 68q57 -62 57 -112zM471 -25q-165 1 -233 57t-68 183q0 41 6 90l74 537q4 20 -12 20h-142l27 189q131 14 204 88t111 239h191l-41 -291q-2 -20 14 -20h283l-29 -205h-299l-68 -489
q-6 -41 -6 -81q0 -89 119 -87q76 0 164 33l37 -183q-168 -80 -332 -80z" />
    <glyph glyph-name="Tbar" unicode="&#x166;" horiz-adv-x="1392" 
d="M471 1260q-27 0 -33 -23l-57 -178h-219l57 424h1292l-57 -424h-217l-8 178q-2 14 -7 18t-22 5h-209l-63 -455h237l-30 -207h-236l-53 -391q-4 -23 0 -30t24 -9l222 -18l-21 -150h-803l23 152l207 14q20 2 26 10t11 31l53 391h-230l31 207h227l64 455h-209z" />
    <glyph glyph-name="tbar" unicode="&#x167;" horiz-adv-x="870" 
d="M471 -25q-165 1 -233 57t-68 183q0 41 6 90l21 152h-148l27 202h147l27 183q4 20 -12 20h-142l27 189q131 14 204 88t111 239h191l-41 -291q-2 -20 14 -20h283l-29 -205h-299l-29 -203h299l-28 -202h-299l-11 -84q-6 -41 -6 -81q0 -89 119 -87q76 0 164 33l37 -183
q-168 -80 -332 -80z" />
    <glyph glyph-name="Utilde" unicode="&#x168;" horiz-adv-x="1585" 
d="M1140 1599q-50 0 -159 29l-154 41q-20 6 -34 -8l-72 -66l-119 80l74 107q63 96 153 96q65 0 185 -32t140 -32t30 13l55 59l125 -80l-57 -84q-47 -68 -82 -96t-85 -27zM248 412q0 51 10 127l100 737q6 39 -24 41l-125 14l20 152h635l-20 -152l-137 -16q-23 -2 -28 -8
t-9 -31l-97 -686q-12 -80 -12 -144q0 -114 55 -166t198 -52q144 0 220 82q76 83 103 278l96 688q4 23 -1 31t-26 10l-125 14l21 152h594l-21 -152l-139 -16q-23 -2 -28 -9t-7 -30l-104 -746q-41 -290 -196 -422t-424 -132t-399 107q-130 108 -130 329z" />
    <glyph glyph-name="utilde" unicode="&#x169;" horiz-adv-x="1275" 
d="M895 1194q-47 0 -112 20t-105 30q-40 12 -67 20q-28 8 -42 10t-34 -14l-72 -66l-111 76l76 104q72 102 150 103q45 0 163 -36t156 -42q14 0 29 12l65 66l123 -76l-59 -84q-45 -67 -79 -95t-81 -28zM168 231q0 61 8 117l68 496q4 27 0 34t-27 9l-80 14l25 166h399l14 -14
l-90 -652q-8 -71 -8 -99q0 -62 66 -62q94 0 258 145l63 463q4 25 0 31t-26 10l-66 10l27 168h387l14 -16l-121 -842q-6 -39 23 -43l102 -14l-20 -152h-406l21 164l-6 2q-6 -4 -34 -29t-39 -33t-40 -30q-122 -95 -283 -97q-229 -4 -229 254z" />
    <glyph glyph-name="Umacron" unicode="&#x16a;" horiz-adv-x="1585" 
d="M1303 1608h-650l27 204h649zM248 412q0 51 10 127l100 737q6 39 -24 41l-125 14l20 152h635l-20 -152l-137 -16q-23 -2 -28 -8t-9 -31l-97 -686q-12 -80 -12 -144q0 -114 55 -166t198 -52q144 0 220 82q76 83 103 278l96 688q4 23 -1 31t-26 10l-125 14l21 152h594
l-21 -152l-139 -16q-23 -2 -28 -9t-7 -30l-104 -746q-41 -290 -196 -422t-424 -132t-399 107q-130 108 -130 329z" />
    <glyph glyph-name="umacron" unicode="&#x16b;" horiz-adv-x="1275" 
d="M1040 1227h-649l29 205h649zM168 231q0 61 8 117l68 496q4 27 0 34t-27 9l-80 14l25 166h399l14 -14l-90 -652q-8 -71 -8 -99q0 -62 66 -62q94 0 258 145l63 463q4 25 0 31t-26 10l-66 10l27 168h387l14 -16l-121 -842q-6 -39 23 -43l102 -14l-20 -152h-406l21 164l-6 2
q-6 -4 -34 -29t-39 -33t-40 -30q-122 -95 -283 -97q-229 -4 -229 254z" />
    <glyph glyph-name="Ubreve" unicode="&#x16c;" horiz-adv-x="1585" 
d="M996 1602q-276 0 -306 268l160 55q31 -139 166 -139t209 141l151 -57q-104 -268 -380 -268zM248 412q0 51 10 127l100 737q6 39 -24 41l-125 14l20 152h635l-20 -152l-137 -16q-23 -2 -28 -8t-9 -31l-97 -686q-12 -80 -12 -144q0 -114 55 -166t198 -52q144 0 220 82
q76 83 103 278l96 688q4 23 -1 31t-26 10l-125 14l21 152h594l-21 -152l-139 -16q-23 -2 -28 -9t-7 -30l-104 -746q-41 -290 -196 -422t-424 -132t-399 107q-130 108 -130 329z" />
    <glyph glyph-name="ubreve" unicode="&#x16d;" horiz-adv-x="1275" 
d="M712 1171q-284 0 -313 281l160 57q33 -154 172 -154t221 154l152 -57q-108 -281 -392 -281zM168 231q0 61 8 117l68 496q4 27 0 34t-27 9l-80 14l25 166h399l14 -14l-90 -652q-8 -71 -8 -99q0 -62 66 -62q94 0 258 145l63 463q4 25 0 31t-26 10l-66 10l27 168h387l14 -16
l-121 -842q-6 -39 23 -43l102 -14l-20 -152h-406l21 164l-6 2q-6 -4 -34 -29t-39 -33t-40 -30q-122 -95 -283 -97q-229 -4 -229 254z" />
    <glyph glyph-name="Uring" unicode="&#x16e;" horiz-adv-x="1585" 
d="M1012 1690q88 0 88 98q0 66 -70 65q-38 1 -64 -27t-26 -71q0 -65 72 -65zM1032 1985q96 1 151 -49q56 -50 56 -146t-67 -164t-164 -68t-153 52q-56 51 -56 147t68 162q69 66 165 66zM248 412q0 51 10 127l100 737q6 39 -24 41l-125 14l20 152h635l-20 -152l-137 -16
q-23 -2 -28 -8t-9 -31l-97 -686q-12 -80 -12 -144q0 -114 55 -166t198 -52q144 0 220 82q76 83 103 278l96 688q4 23 -1 31t-26 10l-125 14l21 152h594l-21 -152l-139 -16q-23 -2 -28 -9t-7 -30l-104 -746q-41 -290 -196 -422t-424 -132t-399 107q-130 108 -130 329z" />
    <glyph glyph-name="uring" unicode="&#x16f;" horiz-adv-x="1275" 
d="M725 1300q80 0 80 93q0 59 -62 59q-82 0 -81 -92q0 -60 63 -60zM745 1571q87 0 137 -44t50 -132q0 -89 -60 -151t-150 -62q-89 0 -139 46q-51 46 -51 135t63 149t150 59zM168 231q0 61 8 117l68 496q4 27 0 34t-27 9l-80 14l25 166h399l14 -14l-90 -652q-8 -71 -8 -99
q0 -62 66 -62q94 0 258 145l63 463q4 25 0 31t-26 10l-66 10l27 168h387l14 -16l-121 -842q-6 -39 23 -43l102 -14l-20 -152h-406l21 164l-6 2q-6 -4 -34 -29t-39 -33t-40 -30q-122 -95 -283 -97q-229 -4 -229 254z" />
    <glyph glyph-name="Uhungarumlaut" unicode="&#x170;" horiz-adv-x="1585" 
d="M1544 1841l-387 -280l-96 104l338 336zM1149 1870l-361 -311l-116 108l321 356zM248 412q0 51 10 127l100 737q6 39 -24 41l-125 14l20 152h635l-20 -152l-137 -16q-23 -2 -28 -8t-9 -31l-97 -686q-12 -80 -12 -144q0 -114 55 -166t198 -52q144 0 220 82q76 83 103 278
l96 688q4 23 -1 31t-26 10l-125 14l21 152h594l-21 -152l-139 -16q-23 -2 -28 -9t-7 -30l-104 -746q-41 -290 -196 -422t-424 -132t-399 107q-130 108 -130 329z" />
    <glyph glyph-name="uhungarumlaut" unicode="&#x171;" horiz-adv-x="1275" 
d="M1257 1454l-364 -307l-115 104l318 355zM862 1454l-366 -307l-113 104l313 357zM168 231q0 61 8 117l68 496q4 27 0 34t-27 9l-80 14l25 166h399l14 -14l-90 -652q-8 -71 -8 -99q0 -62 66 -62q94 0 258 145l63 463q4 25 0 31t-26 10l-66 10l27 168h387l14 -16l-121 -842
q-6 -39 23 -43l102 -14l-20 -152h-406l21 164l-6 2q-6 -4 -34 -29t-39 -33t-40 -30q-122 -95 -283 -97q-229 -4 -229 254z" />
    <glyph glyph-name="Uogonek" unicode="&#x172;" horiz-adv-x="1585" 
d="M764 -479q-195 0 -195 151q0 156 201 303q-266 3 -394 109t-128 328q0 51 10 127l100 737q6 39 -24 41l-125 14l20 152h635l-20 -152l-137 -16q-23 -2 -28 -8t-9 -31l-97 -686q-12 -80 -12 -144q0 -114 55 -166t198 -52q144 0 220 82q76 83 103 278l96 688q4 23 -1 31
t-26 10l-125 14l21 152h594l-21 -152l-139 -16q-23 -2 -28 -9t-7 -30l-104 -746q-29 -214 -112 -328t-253 -204q-70 -37 -142 -109t-73 -127q0 -54 47 -54t115 20l35 -152q-125 -55 -250 -55z" />
    <glyph glyph-name="uogonek" unicode="&#x173;" horiz-adv-x="1275" 
d="M903 -479q-195 0 -194 151q0 166 233 328h-164l21 164l-6 2q-6 -4 -34 -29t-39 -33t-40 -30q-122 -95 -283 -97q-229 -3 -229 254q0 61 8 117l68 496q4 27 0 34t-27 9l-80 14l25 166h399l14 -14l-90 -652q-8 -71 -8 -99q0 -62 66 -62q94 0 258 145l63 463q4 25 0 31
t-26 10l-66 10l27 168h387l14 -16l-121 -842q-6 -39 23 -43l102 -14l-20 -152q-90 -51 -159 -118t-69 -121q0 -53 47 -53t115 20l35 -152q-125 -55 -250 -55z" />
    <glyph glyph-name="Wcircumflex" unicode="&#x174;" horiz-adv-x="2070" 
d="M1610 1686l-125 -115l-219 166l-265 -166l-100 115l281 229h213zM1606 0h-408l-88 750h-6l-293 -750h-399l-127 1260q-1 28 -9 36t-34 15l-97 22l23 150h612l-22 -150l-170 -20l96 -998h10l355 893h307l98 -913h12l344 1018l-161 20l22 150h563l-22 -150l-98 -22
q-37 -6 -56 -54z" />
    <glyph glyph-name="wcircumflex" unicode="&#x175;" horiz-adv-x="1753" 
d="M1374 1257l-133 -106l-207 190l-264 -190l-111 106l287 265h213zM1370 0h-340l-84 686h-6l-242 -686h-366l-129 862q-4 29 -35 35l-84 18l27 152h378l17 -18l14 -187l64 -553h6l270 740h322l90 -748h6l252 602l-113 12l25 152h340l22 -59z" />
    <glyph glyph-name="Ycircumflex" unicode="&#x176;" horiz-adv-x="1357" 
d="M1233 1686l-125 -115l-219 166l-264 -166l-101 115l281 229h213zM1057 0h-787l19 152l205 14q18 2 24 9t10 32l50 346l-299 723q-8 23 -46 35l-86 22l23 150h618l-22 -150l-160 -18l178 -492h13l311 492l-152 18l23 150h534l-22 -150l-86 -22q-43 -14 -57 -41l-459 -713
l-49 -350q-4 -23 0 -30t26 -9l211 -16z" />
    <glyph glyph-name="ycircumflex" unicode="&#x177;" horiz-adv-x="1163" 
d="M1032 1257l-133 -106l-207 190l-264 -190l-111 106l287 265h213zM190 -457q-100 0 -183 34t-120 69l105 174q98 -59 196 -59t183 143l57 102l-229 856q-8 27 -37 35l-80 18l24 152h361l20 -23l148 -692h10l260 545l-125 18l23 152h379l28 -63l-594 -1170
q-82 -154 -175 -222t-251 -69z" />
    <glyph glyph-name="Ydieresis" unicode="&#x178;" horiz-adv-x="1357" 
d="M1112 1884q132 0 133 -132q0 -64 -46 -108q-47 -44 -113 -44t-101 34q-35 36 -35 100t48 107t114 43zM686 1884q132 0 133 -132q0 -64 -47 -108q-46 -44 -112 -44t-101 34q-35 36 -35 100t48 107t114 43zM1057 0h-787l19 152l205 14q18 2 24 9t10 32l50 346l-299 723
q-8 23 -46 35l-86 22l23 150h618l-22 -150l-160 -18l178 -492h13l311 492l-152 18l23 150h534l-22 -150l-86 -22q-43 -14 -57 -41l-459 -713l-49 -350q-4 -23 0 -30t26 -9l211 -16z" />
    <glyph glyph-name="Zacute" unicode="&#x179;" horiz-adv-x="1347" 
d="M1118 1745l-461 -174l-65 145l434 240zM530 1262q-29 0 -34 -23l-60 -188l-223 -11l63 443h1100l-26 -207l-883 -1057h494q29 0 36 23l68 219h213l-61 -461h-1164l29 199l889 1063h-441z" />
    <glyph glyph-name="zacute" unicode="&#x17a;" horiz-adv-x="1052" 
d="M905 1427l-381 -278l-112 119l336 334zM410 874q-20 0 -31 -24l-39 -117l-207 -8l47 342h889l-25 -176l-612 -701h295q23 0 31 27l45 141l211 9l-51 -367h-920l25 172l622 702h-280z" />
    <glyph glyph-name="Zdotaccent" unicode="&#x17b;" horiz-adv-x="1347" 
d="M897 1964q164 0 164 -163q0 -85 -57 -143q-56 -58 -146 -58t-133 40q-43 41 -43 126q0 86 57 142t158 56zM530 1262q-29 0 -34 -23l-60 -188l-223 -11l63 443h1100l-26 -207l-883 -1057h494q29 0 36 23l68 219h213l-61 -461h-1164l29 199l889 1063h-441z" />
    <glyph glyph-name="zdotaccent" unicode="&#x17c;" horiz-adv-x="1052" 
d="M648 1235q-87 0 -128 41t-41 126q-1 85 55 141t144 56q172 0 172 -151q0 -98 -57 -156q-58 -57 -145 -57zM410 874q-20 0 -31 -24l-39 -117l-207 -8l47 342h889l-25 -176l-612 -701h295q23 0 31 27l45 141l211 9l-51 -367h-920l25 172l622 702h-280z" />
    <glyph glyph-name="Zcaron" unicode="&#x17d;" horiz-adv-x="1347" 
d="M1221 1823l-279 -228h-213l-217 228l123 116l219 -165l266 165zM530 1262q-29 0 -34 -23l-60 -188l-223 -11l63 443h1100l-26 -207l-883 -1057h494q29 0 36 23l68 219h213l-61 -461h-1164l29 199l889 1063h-441z" />
    <glyph glyph-name="zcaron" unicode="&#x17e;" horiz-adv-x="1052" 
d="M1026 1456l-289 -264h-213l-213 264l131 107l209 -191l262 191zM410 874q-20 0 -31 -24l-39 -117l-207 -8l47 342h889l-25 -176l-612 -701h295q23 0 31 27l45 141l211 9l-51 -367h-920l25 172l622 702h-280z" />
    <glyph glyph-name="longs" unicode="&#x17f;" horiz-adv-x="874" 
d="M752 1571q94 0 193 -32t159 -77l-115 -190q-119 74 -207 74q-123 0 -141 -138l-231 -1642h-304l230 1632q29 199 133 286t283 87z" />
    <glyph glyph-name="florin" unicode="&#x192;" horiz-adv-x="1179" 
d="M86 -225q-96 1 -190 31t-142 71l107 189q104 -78 209 -78q68 0 106 35t72 143l125 401q6 20 -13 21h-180l60 194h200l62 201q62 199 168 279t302 80t333 -89l-91 -299l-186 19l16 127q0 23 -18 26q-29 12 -82 12t-89 -37q-36 -38 -62 -120l-56 -178q-6 -20 13 -21h251
l-57 -194h-272l-125 -412q-72 -233 -176 -317t-285 -84z" />
    <glyph glyph-name="Scommaaccent" unicode="&#x218;" horiz-adv-x="1204" 
d="M717 -234q0 -68 -62 -167l-125 -199l-124 39l69 196q10 18 -6 25l-76 27l70 200q125 -1 189 -27t65 -94zM794 1274q-98 0 -176 -49t-78 -139t108 -144q49 -23 128 -52q80 -28 120 -45q121 -52 189 -136q68 -85 68 -232q0 -250 -174 -376t-449 -126q-131 0 -265 27
t-193 57l55 400h223l15 -193q2 -35 36 -45q66 -16 158 -16q281 0 281 213q0 80 -56 122t-204 94t-213 97q-139 100 -140 291q0 238 170 362t434 125q209 0 406 -84l-55 -399l-224 18l-4 177q0 37 -30 45q-32 8 -130 8z" />
    <glyph glyph-name="scommaaccent" unicode="&#x219;" horiz-adv-x="978" 
d="M381 -600l-125 39l70 196q6 20 -9 25l-73 27l69 200q125 -1 190 -27t65 -94t-62 -167zM580 893q-154 0 -154 -98q0 -45 38 -69t114 -50t104 -35q28 -10 84 -40q57 -31 83 -59q25 -28 49 -79t24 -113q0 -188 -138 -281t-348 -94q-131 0 -246 25t-145 47l39 297l209 -12
l6 -119q0 -25 23 -33q55 -18 142 -18t133 30t46 75q0 46 -29 73q-30 27 -58 37q-28 9 -102 31t-116 40q-43 18 -94 55q-101 71 -101 237q0 165 133 256t346 91t355 -59l-41 -297l-213 12l-4 107q0 27 -25 33q-41 10 -114 10z" />
    <glyph glyph-name="uni021A" unicode="&#x21a;" horiz-adv-x="1392" 
d="M793 -234q0 -68 -62 -167l-125 -199l-125 39l70 196q10 18 -6 25l-76 27l70 200q125 -1 189 -27t65 -94zM471 1260q-27 0 -33 -23l-57 -178h-219l57 424h1292l-57 -424h-217l-8 178q-2 14 -7 18t-22 5h-209l-145 -1053q-4 -23 0 -30t24 -9l222 -18l-21 -150h-803l23 152
l207 14q20 2 26 10t11 31l145 1053h-209z" />
    <glyph glyph-name="uni021B" unicode="&#x21b;" horiz-adv-x="870" 
d="M381 -600l-125 39l70 196q6 20 -9 25l-73 27l69 200q125 -1 190 -27t65 -94t-62 -167zM471 -25q-165 1 -233 57t-68 183q0 41 6 90l74 537q4 20 -12 20h-142l27 189q131 14 204 88t111 239h191l-41 -291q-2 -20 14 -20h283l-29 -205h-299l-68 -489q-6 -41 -6 -81
q0 -89 119 -87q76 0 164 33l37 -183q-168 -80 -332 -80z" />
    <glyph glyph-name="dotlessj" unicode="&#x237;" horiz-adv-x="645" 
d="M47 -457q-109 0 -198 36t-121 69l104 170q82 -54 158 -54t109 38q34 38 48 141l127 891q2 33 -20 43l-107 34l23 156h436l-162 -1176q-26 -182 -124 -265t-273 -83z" />
    <glyph glyph-name="apostrophe" unicode="&#x2bc;" 
d="M805 1354q0 -58 -45 -127l-105 -168l-100 39l61 155q6 16 -6 21l-61 20l55 158q96 0 148 -20t53 -78z" />
    <glyph glyph-name="circumflex" unicode="&#x2c6;" 
d="M1047 1257l-134 -106l-206 190l-265 -190l-110 106l286 265h213z" />
    <glyph glyph-name="caron" unicode="&#x2c7;" 
d="M1073 1456l-289 -264h-213l-213 264l131 107l209 -191l263 191z" />
    <glyph glyph-name="uni02C9" unicode="&#x2c9;" 
d="M1010 1227h-650l29 205h649z" />
    <glyph glyph-name="breve" unicode="&#x2d8;" 
d="M674 1171q-284 0 -312 281l160 57q33 -154 172 -154t221 154l152 -57q-109 -281 -393 -281z" />
    <glyph glyph-name="dotaccent" unicode="&#x2d9;" 
d="M695 1235q-87 0 -128 41t-41 126t56 141t143 56q172 0 172 -151q0 -98 -57 -156q-58 -57 -145 -57z" />
    <glyph glyph-name="ring" unicode="&#x2da;" 
d="M698 1300q80 0 80 93q0 59 -61 59q-82 0 -82 -92q0 -60 63 -60zM506 1363q0 89 62 149t150 59q87 0 137 -44t50 -132q0 -89 -60 -151q-59 -62 -149 -62t-140 46t-50 135z" />
    <glyph glyph-name="ogonek" unicode="&#x2db;" 
d="M461 -479q-195 0 -195 151q0 111 85 200t220 173l142 -39q-199 -152 -199 -250q0 -48 47 -48t115 20l35 -152q-125 -55 -250 -55z" />
    <glyph glyph-name="tilde" unicode="&#x2dc;" 
d="M862 1194q-48 0 -112 20t-104 30q-40 12 -68 20t-41 10q-14 2 -35 -14l-72 -66l-111 76l76 104q72 102 150 103q45 0 163 -36t156 -42q14 0 29 12l65 66l123 -76l-59 -84q-45 -67 -79 -95t-81 -28z" />
    <glyph glyph-name="hungarumlaut" unicode="&#x2dd;" 
d="M1155 1454l-364 -307l-115 104l317 355zM760 1454l-367 -307l-112 104l313 357z" />
    <glyph glyph-name="uni0394" unicode="&#x394;" horiz-adv-x="1464" 
d="M1008 246l-160 923h-12l-437 -923h609zM1419 0h-1427l737 1483h363z" />
    <glyph glyph-name="uni03A9" unicode="&#x3a9;" horiz-adv-x="1697" 
d="M1313 928q0 168 -86 249t-238 80q-197 0 -321 -129t-123 -366q0 -131 56 -227t157 -144l-56 -391h-659l51 356h211l12 -116q1 -14 7 -18t22 -5h174l10 78q-141 57 -224 182t-83 289q0 324 221 534t582 209q307 0 459 -141q151 -141 151 -396t-140 -428t-355 -249l-11 -78
h166q29 0 37 23l43 116h213l-51 -356h-649l55 389q132 52 241 167q58 62 93 160t35 212z" />
    <glyph glyph-name="uni03BC" unicode="&#x3bc;" horiz-adv-x="1288" 
d="M506 301q0 -80 104 -80t211 90l107 756h309l-121 -860q-6 -35 23 -37l100 -14l-20 -156h-396l19 123l-8 4q-174 -135 -306 -135q-45 0 -82 12l-28 -364h-320l201 1427h309l-96 -678q-6 -51 -6 -88z" />
    <glyph glyph-name="pi" unicode="&#x3c0;" horiz-adv-x="1415" 
d="M1255 0h-436l123 870h-311l-121 -870h-436l20 154l96 14q20 2 27 7q6 5 10 28l92 649q4 25 -1 32t-25 9l-98 14l22 160h1198l-22 -160l-105 -14q-22 -2 -28 -10t-11 -31l-92 -643q-4 -25 1 -32t28 -9l90 -14z" />
    <glyph glyph-name="Wgrave" unicode="&#x1e80;" horiz-adv-x="2070" 
d="M1407 1569l-430 184l133 203l389 -250zM1606 0h-408l-88 750h-6l-293 -750h-399l-127 1260q-1 28 -9 36t-34 15l-97 22l23 150h612l-22 -150l-170 -20l96 -998h10l355 893h307l98 -913h12l344 1018l-161 20l22 150h563l-22 -150l-98 -22q-37 -6 -56 -54z" />
    <glyph glyph-name="wgrave" unicode="&#x1e81;" horiz-adv-x="1753" 
d="M1241 1251l-131 -102l-324 299l191 160zM1370 0h-340l-84 686h-6l-242 -686h-366l-129 862q-4 29 -35 35l-84 18l27 152h378l17 -18l14 -187l64 -553h6l270 740h322l90 -748h6l252 602l-113 12l25 152h340l22 -59z" />
    <glyph glyph-name="Wacute" unicode="&#x1e82;" horiz-adv-x="2070" 
d="M1546 1745l-461 -174l-65 145l434 240zM1606 0h-408l-88 750h-6l-293 -750h-399l-127 1260q-1 28 -9 36t-34 15l-97 22l23 150h612l-22 -150l-170 -20l96 -998h10l355 893h307l98 -913h12l344 1018l-161 20l22 150h563l-22 -150l-98 -22q-37 -6 -56 -54z" />
    <glyph glyph-name="wacute" unicode="&#x1e83;" horiz-adv-x="1753" 
d="M1292 1427l-381 -278l-112 119l336 334zM1370 0h-340l-84 686h-6l-242 -686h-366l-129 862q-4 29 -35 35l-84 18l27 152h378l17 -18l14 -187l64 -553h6l270 740h322l90 -748h6l252 602l-113 12l25 152h340l22 -59z" />
    <glyph glyph-name="Wdieresis" unicode="&#x1e84;" horiz-adv-x="2070" 
d="M1494 1884q132 0 132 -132q0 -64 -46 -108t-112 -44t-102 34q-35 36 -35 100t48 107q49 43 115 43zM1068 1884q132 0 132 -132q0 -64 -47 -108t-113 -44t-100 34q-35 36 -35 100t48 107q49 43 115 43zM1606 0h-408l-88 750h-6l-293 -750h-399l-127 1260q-1 28 -9 36
t-34 15l-97 22l23 150h612l-22 -150l-170 -20l96 -998h10l355 893h307l98 -913h12l344 1018l-161 20l22 150h563l-22 -150l-98 -22q-37 -6 -56 -54z" />
    <glyph glyph-name="wdieresis" unicode="&#x1e85;" horiz-adv-x="1753" 
d="M1264 1505q132 -1 133 -133q0 -64 -46 -108q-47 -44 -113 -43t-101 35t-35 99t48 107t114 43zM838 1505q132 -1 133 -133q0 -64 -47 -108q-46 -44 -112 -43t-101 35t-35 99t48 107t114 43zM1370 0h-340l-84 686h-6l-242 -686h-366l-129 862q-4 29 -35 35l-84 18l27 152
h378l17 -18l14 -187l64 -553h6l270 740h322l90 -748h6l252 602l-113 12l25 152h340l22 -59z" />
    <glyph glyph-name="Ygrave" unicode="&#x1ef2;" horiz-adv-x="1357" 
d="M1012 1569l-430 184l133 203l389 -250zM1057 0h-787l19 152l205 14q18 2 24 9t10 32l50 346l-299 723q-8 23 -46 35l-86 22l23 150h618l-22 -150l-160 -18l178 -492h13l311 492l-152 18l23 150h534l-22 -150l-86 -22q-43 -14 -57 -41l-459 -713l-49 -350q-4 -23 0 -30
t26 -9l211 -16z" />
    <glyph glyph-name="ygrave" unicode="&#x1ef3;" horiz-adv-x="1163" 
d="M895 1251l-131 -102l-324 299l191 160zM190 -457q-100 0 -183 34t-120 69l105 174q98 -59 196 -59t183 143l57 102l-229 856q-8 27 -37 35l-80 18l24 152h361l20 -23l148 -692h10l260 545l-125 18l23 152h379l28 -63l-594 -1170q-82 -154 -175 -222t-251 -69z" />
    <glyph glyph-name="endash" unicode="&#x2013;" horiz-adv-x="1021" 
d="M1044 465h-1021l30 219h1022z" />
    <glyph glyph-name="emdash" unicode="&#x2014;" horiz-adv-x="2048" 
d="M2071 465h-2048l30 219h2048z" />
    <glyph glyph-name="quoteleft" unicode="&#x2018;" horiz-adv-x="442" 
d="M221 1237q0 51 60 147l127 205l122 -43l-73 -200q-6 -16 10 -23l72 -29l-68 -194q-119 2 -185 30t-65 107z" />
    <glyph glyph-name="quoteright" unicode="&#x2019;" horiz-adv-x="446" 
d="M543 1466q0 -66 -60 -163l-127 -205l-123 43l74 198q6 18 -10 25l-70 29l68 192q119 -1 183 -27t65 -92z" />
    <glyph glyph-name="quotesinglbase" unicode="&#x201a;" horiz-adv-x="438" 
d="M176 -279l-123 43l74 201q6 16 -10 23l-72 28l70 195q119 -2 183 -28q128 -52 5 -255z" />
    <glyph glyph-name="quotedblleft" unicode="&#x201c;" horiz-adv-x="806" 
d="M221 1237q0 51 60 147l127 205l122 -43l-73 -200q-6 -16 10 -23l72 -29l-68 -194q-119 2 -185 30t-65 107zM903 1294l-67 -194q-119 2 -185 30t-65 107q0 51 59 147l127 205l123 -43l-74 -200q-6 -16 10 -23z" />
    <glyph glyph-name="quotedblright" unicode="&#x201d;" horiz-adv-x="811" 
d="M543 1466q0 -66 -60 -163l-127 -205l-123 43l74 198q6 18 -10 25l-70 29l68 192q119 -1 183 -27t65 -92zM721 1098l-123 43l74 198q6 18 -10 25l-70 29l67 192q119 -1 184 -27q130 -51 5 -255z" />
    <glyph glyph-name="quotedblbase" unicode="&#x201e;" horiz-adv-x="802" 
d="M176 -279l-123 43l74 201q6 16 -10 23l-72 28l70 195q119 -2 183 -28q128 -52 5 -255zM541 -279l-123 43l74 201q6 16 -11 23l-71 28l69 195q119 -2 184 -28t64 -103q0 -55 -59 -152z" />
    <glyph glyph-name="dagger" unicode="&#x2020;" horiz-adv-x="823" 
d="M836 811h-150l-162 74l78 -230l-100 -438l-56 -387h-204l55 387l20 438l138 230l-181 -74h-151l31 213h151l160 -72l-47 197l24 172h215l-24 -172l-101 -197l185 72h149zM532 952h-67l-10 -67h69z" />
    <glyph glyph-name="daggerdbl" unicode="&#x2021;" horiz-adv-x="860" 
d="M483 -170h-215l25 172l102 197l-182 -74h-152l31 213h152l159 -72l-69 238l20 153l138 228l-183 -74h-151l32 213h152l158 -72l-45 197l24 172h215l-24 -172l-101 -197l185 72h149l-31 -213h-151l-160 74l78 -228l-21 -153l-145 -238l182 72h150l-29 -213h-151l-160 74
l43 -197zM465 199l8 67h-70l-8 -67h70zM561 885l8 67h-69l-8 -67h69z" />
    <glyph glyph-name="bullet" unicode="&#x2022;" horiz-adv-x="843" 
d="M768 571q0 -147 -80 -223t-231 -76q-307 0 -307 299t307 299q151 0 231 -76t80 -223z" />
    <glyph glyph-name="ellipsis" unicode="&#x2026;" horiz-adv-x="1458" 
d="M442 156q0 -180 -198 -181q-156 0 -156 138q0 182 201 182q153 0 153 -139zM1335 156q0 -180 -198 -181q-156 0 -156 138q0 182 201 182q153 0 153 -139zM889 156q0 -180 -199 -181q-156 0 -155 138q0 182 200 182q154 0 154 -139z" />
    <glyph glyph-name="perthousand" unicode="&#x2030;" horiz-adv-x="2330" 
d="M1919 129q133 0 133 240q0 117 -80 116q-133 0 -133 -233q0 -123 80 -123zM1892 -25q-270 0 -270 261q0 190 98 298t277 107q272 0 272 -262q1 -188 -99 -296t-278 -108zM1223 129q131 0 131 240q0 117 -78 116q-133 0 -133 -233q0 -123 80 -123zM1194 -25
q-268 0 -268 261q0 193 98 299t279 106q270 0 270 -262q-1 -186 -101 -295t-278 -109zM453 758q131 0 131 239q0 117 -80 117q-133 0 -133 -233q0 -123 82 -123zM524 -35h-284l954 1307h283zM424 604q-270 0 -270 262q0 190 98 296t278 108q270 0 271 -260q1 -188 -99 -297
t-278 -109z" />
    <glyph glyph-name="guilsinglleft" unicode="&#x2039;" horiz-adv-x="569" 
d="M479 211h-248l-131 315l226 310h252l-205 -287q-16 -18 -8 -39z" />
    <glyph glyph-name="guilsinglright" unicode="&#x203a;" horiz-adv-x="569" 
d="M317 211h-249l200 299q12 20 4 39l-122 287h249l138 -312z" />
    <glyph glyph-name="fraction" unicode="&#x2044;" horiz-adv-x="458" 
d="M-37 -35h-285l947 1518h282z" />
    <glyph glyph-name="foursuperior" unicode="&#x2074;" horiz-adv-x="899" 
d="M571 1069l45 307h-6l-241 -307h202zM770 717h-248l25 176h-412l25 168l456 569h287l-82 -561h111l-27 -174h-110z" />
    <glyph glyph-name="Euro" unicode="&#x20ac;" horiz-adv-x="1142" 
d="M518 543v-27q0 -315 195 -315q59 0 100 14q20 8 27 33l51 162l209 10l-49 -357q-53 -33 -173 -61t-231 -27q-225 1 -339 139t-113 400v29h-142l76 239h90q59 281 235 420t400 139q109 -1 212 -27t151 -61l-50 -348l-206 10l-9 160q0 27 -18 33q-43 14 -105 14
q-96 0 -175 -82t-113 -258h323l-71 -239h-275z" />
    <glyph glyph-name="trademark" unicode="&#x2122;" horiz-adv-x="1734" 
d="M1831 713h-307v92l84 10v387l-164 -323h-123l-160 325v-389l90 -10v-92h-307v92l74 10v559l-74 8v101h225l217 -447l224 447h217v-101l-78 -8v-559l82 -10v-92zM745 713h-383v94l109 10v553h-143l-15 -104h-92v217h660v-217h-95l-12 104h-145v-553l116 -10v-94z" />
    <glyph glyph-name="Omega" unicode="&#x2126;" horiz-adv-x="1697" 
d="M1313 928q0 168 -86 249t-238 80q-197 0 -321 -129t-123 -366q0 -131 56 -227t157 -144l-56 -391h-659l51 356h211l12 -116q1 -14 7 -18t22 -5h174l10 78q-141 57 -224 182t-83 289q0 324 221 534t582 209q307 0 459 -141q151 -141 151 -396t-140 -428t-355 -249l-11 -78
h166q29 0 37 23l43 116h213l-51 -356h-649l55 389q132 52 241 167q58 62 93 160t35 212z" />
    <glyph glyph-name="partialdiff" unicode="&#x2202;" horiz-adv-x="1210" 
d="M624 639q-92 0 -150 -84q-56 -84 -56 -195q0 -160 133 -159q206 -1 274 366q-109 72 -201 72zM694 1155q-152 0 -305 -108l-98 186q223 150 485 149q209 0 307 -140q99 -140 99 -376t-76 -448q-45 -127 -117 -221q-71 -93 -195 -157t-302 -64t-284 92q-108 94 -108 266
q0 232 138 372t352 140q145 0 274 -92q16 98 17 170q0 231 -187 231z" />
    <glyph glyph-name="Delta" unicode="&#x2206;" horiz-adv-x="1464" 
d="M1008 246l-160 923h-12l-437 -923h609zM1419 0h-1427l737 1483h363z" />
    <glyph glyph-name="product" unicode="&#x220f;" horiz-adv-x="1638" 
d="M1495 -360h-647l20 151l131 14q23 3 30 11t9 30l199 1414h-561l-199 -1412q-4 -26 0 -32t27 -9l135 -16l-21 -151h-649l21 151l131 14q23 3 29 11t10 30l202 1426q4 23 -2 31t-26 10l-127 14l22 156h1526l-22 -156l-140 -16q-23 -2 -27 -8t-10 -31l-202 -1424
q-4 -26 1 -32t25 -9l136 -16z" />
    <glyph glyph-name="summation" unicode="&#x2211;" horiz-adv-x="1284" 
d="M1001 1262h-454l278 -676l-530 -684h561q29 0 37 22l57 180h224l-64 -464h-1192l25 184l567 729l-334 768l23 162h1124l-59 -414l-224 10l-6 156q-2 27 -33 27z" />
    <glyph glyph-name="minus" unicode="&#x2212;" horiz-adv-x="1167" 
d="M1010 543h-793l33 237h792z" />
    <glyph glyph-name="uni2215" unicode="&#x2215;" horiz-adv-x="929" 
d="M279 -35h-269l828 1327h266z" />
    <glyph glyph-name="uni2219" unicode="&#x2219;" horiz-adv-x="487" 
d="M504 684q0 -180 -199 -180q-156 0 -155 137q0 182 200 182q154 0 154 -139z" />
    <glyph glyph-name="radical" unicode="&#x221a;" horiz-adv-x="1206" 
d="M801 0h-287l-184 426q-8 20 -33 14l-131 -28l-55 176l362 164l182 -465l504 1241l242 -62z" />
    <glyph glyph-name="infinity" unicode="&#x221e;" horiz-adv-x="1337" 
d="M1036 813q-94 0 -205 -125q119 -139 209 -139q55 0 87 35t32 94t-31 97t-92 38zM399 508q88 0 199 129q-102 143 -203 143q-55 0 -88 -37t-33 -96q0 -139 125 -139zM430 954q182 0 309 -155q147 156 310 155q113 0 189 -70t75 -204q0 -133 -84 -228t-225 -96
q-176 0 -314 166q-150 -166 -299 -166q-123 0 -199 69t-75 205q0 136 86 230t227 94z" />
    <glyph glyph-name="integral" unicode="&#x222b;" horiz-adv-x="929" 
d="M351 -174q58 0 79 30q20 30 14 111l-104 1202q-14 166 74 243t214 77t261 -47l-53 -201q-68 33 -131 33q-98 0 -89 -119l107 -1225q16 -177 -74 -247t-218 -70t-257 51l53 195q66 -33 124 -33z" />
    <glyph glyph-name="approxequal" unicode="&#x2248;" horiz-adv-x="1085" 
d="M819 362q-87 0 -241 38t-202 38t-73 -17t-59 -67l-140 66q68 121 128 178t144 57t228 -39q144 -38 192 -38t66 20t43 66l146 -43q-41 -123 -93 -191t-139 -68zM401 834q-47 0 -73 -18t-62 -66l-137 65q66 121 126 178t144 57q83 0 229 -38q146 -39 194 -39q48 -1 65 19
q18 20 41 67l147 -43q-41 -123 -94 -191q-53 -67 -139 -67t-240 38t-201 38z" />
    <glyph glyph-name="notequal" unicode="&#x2260;" horiz-adv-x="1167" 
d="M973 266h-408l-92 -180h-217q2 6 9 16t9 17l76 147h-168l35 240h258l72 141h-311l34 240h402l94 184h217l-94 -184h172l-35 -240h-264l-72 -141h318z" />
    <glyph glyph-name="lessequal" unicode="&#x2264;" horiz-adv-x="1167" 
d="M961 0h-793l33 238h792zM995 258l-751 281l39 286l829 291l-20 -239l-576 -187l526 -192z" />
    <glyph glyph-name="greaterequal" unicode="&#x2265;" horiz-adv-x="1167" 
d="M938 0h-793l33 238h793zM1014 539l-834 -281l25 242l579 192l-524 180l47 244l748 -291z" />
    <glyph glyph-name="lozenge" unicode="&#x25ca;" horiz-adv-x="1142" 
d="M557 207l258 422l-141 407l-254 -407zM637 -35h-225l-226 664l412 663h225l224 -663z" />
    <glyph glyph-name="CR" 
 />
    <glyph glyph-name="hyphen.case" horiz-adv-x="636" 
d="M633 588h-555l37 260h555z" />
    <glyph glyph-name="commaaccent" 
d="M633 -234q0 -68 -62 -167l-125 -199l-124 39l69 196q6 20 -8 25l-74 27l70 200q125 -1 189 -27t65 -94z" />
    <glyph glyph-name="revcommaaccent" 
d="M539 1271q0 68 61 167l123 198l125 -39l-70 -196q-6 -20 6 -25l76 -26l-69 -201q-125 2 -189 28q-63 26 -63 94z" />
    <glyph glyph-name="tilde.cap" 
d="M912 1599q-50 0 -158 29l-154 41q-20 6 -35 -8l-71 -66l-119 80l74 107q63 96 153 96q66 0 186 -32t138 -32q20 0 30 13l56 59l125 -80l-58 -84q-47 -68 -82 -96t-85 -27z" />
    <glyph glyph-name="ring.cap" 
d="M739 1597q88 0 88 99q0 66 -69 65q-39 1 -65 -27t-25 -71q-1 -66 71 -66zM736 1466q-97 0 -153 52q-57 52 -57 147t68 161t164 66t152 -49t56 -145t-66 -164q-67 -68 -164 -68z" />
    <glyph glyph-name="circumflex.cap" 
d="M1102 1686l-125 -115l-219 166l-264 -166l-101 115l281 229h213z" />
    <glyph glyph-name="acute.cap" 
d="M1014 1745l-461 -174l-66 145l435 240z" />
    <glyph glyph-name="grave.cap" 
d="M926 1569l-430 184l133 203l389 -250z" />
    <glyph glyph-name="dieresis.cap" 
d="M988 1884q132 0 132 -132q0 -64 -46 -108t-112 -44t-102 34q-35 36 -35 100t48 107q49 43 115 43zM562 1884q132 0 132 -132q0 -64 -47 -108t-113 -44t-100 34q-35 36 -35 100t48 107q49 43 115 43z" />
    <glyph glyph-name="caron.cap" 
d="M1122 1823l-278 -228h-213l-217 228l123 116l219 -165l266 165z" />
    <glyph glyph-name="macron.cap" 
d="M1063 1608h-649l26 204h650z" />
    <glyph glyph-name="dotaccent.cap" 
d="M788 1964q164 0 164 -163q0 -85 -58 -143t-146 -58t-132 40q-43 41 -43 126q-1 86 57 142t158 56z" />
    <glyph glyph-name="cedilla.cap" 
d="M332 -375q51 0 90 24t39 75q0 78 -125 81l70 256l143 -16l-37 -137q143 -41 143 -169t-90 -196q-89 -67 -199 -67t-143 16l33 141q25 -8 76 -8z" />
    <glyph glyph-name="hungarumlaut.cap" 
d="M1237 1841l-387 -280l-96 104l338 336zM842 1870l-361 -311l-116 108l321 356z" />
    <glyph glyph-name="commaaccent.cap" 
d="M633 -234q0 -68 -62 -167l-125 -199l-124 39l69 196q10 18 -6 25l-76 27l70 200q125 -1 189 -27t65 -94z" />
    <glyph glyph-name="breve.cap" 
d="M740 1602q-276 0 -306 268l160 55q31 -139 166 -139t209 141l151 -57q-104 -268 -380 -268z" />
    <glyph glyph-name="caron.alt" 
d="M852 1474q0 -52 -28 -121t-148 -266l-141 60q78 172 77 274q0 35 -18 97l201 69q57 -61 57 -113z" />
    <glyph glyph-name="ogonek.cap" 
d="M461 -479q-195 0 -195 151q0 111 85 200t220 173l142 -39q-199 -152 -199 -250q0 -48 47 -48t115 20l35 -152q-125 -55 -250 -55z" />
    </font>
</defs>
</svg>
